<svg width="340" height="318" viewBox="0 0 340 318" fill="none" xmlns="http://www.w3.org/2000/svg">
<path d="M256.37 153.476C261.293 164.806 267.135 175.753 273.85 186.231L273.891 186.295C274.299 186.933 274.45 187.689 274.32 188.44C274.19 189.19 273.787 189.891 273.176 190.427C272.565 190.964 271.782 191.306 270.955 191.396C270.128 191.486 269.305 191.32 268.621 190.925C262.619 187.46 256.567 184.065 250.465 180.74C241.104 175.663 231.557 170.781 221.794 166.375C216.326 163.909 210.807 161.535 205.235 159.253C199.658 156.982 194.035 154.794 188.367 152.69C187.595 152.403 186.98 151.862 186.639 151.17C186.298 150.478 186.254 149.684 186.516 148.938C186.778 148.192 187.328 147.547 188.061 147.124C188.793 146.702 189.658 146.532 190.491 146.647L190.516 146.651C199.532 147.902 208.552 149.24 217.521 150.923C226.565 152.55 235.468 154.674 244.18 157.285L240.526 163.125C229.438 155.445 217.783 148.447 205.634 142.174C193.494 135.896 180.886 130.352 167.888 125.577C159.652 122.583 151.247 120.106 142.64 119.113C138.391 118.601 134.067 118.536 129.753 118.922C127.624 119.125 125.505 119.451 123.409 119.9L121.85 120.28L121.07 120.47L120.303 120.698L118.767 121.151L117.262 121.681C113.282 123.086 109.56 125.083 106.252 127.587C105.853 127.904 105.471 128.237 105.079 128.56L104.492 129.047C104.302 129.214 104.129 129.395 103.946 129.567L102.859 130.612L101.865 131.723L101.366 132.279C101.209 132.469 101.068 132.67 100.918 132.864L100.025 134.039C99.7532 134.447 99.5024 134.867 99.2379 135.28L98.8442 135.901C98.7052 136.105 98.5834 136.317 98.4798 136.536C96.6122 140.035 95.4336 143.78 94.9999 147.594C94.5709 151.538 94.6662 155.491 95.2837 159.367C96.4385 167.237 99.2209 174.974 102.577 182.413C105.908 189.851 110.172 196.88 115.289 203.366C117.883 206.553 120.714 209.572 123.762 212.401C126.841 215.178 130.151 217.733 133.667 220.047C135.486 221.114 137.243 222.271 139.157 223.197C141.009 224.197 142.93 225.094 144.91 225.882C148.872 227.455 153.024 228.64 157.298 229.417C167.594 231.309 178.68 231.04 188.816 228.095C192.868 226.925 196.805 225.407 200.572 223.562C203.65 222.066 205.977 220.71 207.838 219.695C210.474 218.14 210.973 218.492 209.336 220.599C208.812 221.238 208.247 221.849 207.644 222.429C207.294 222.785 206.878 223.129 206.443 223.514C206.006 223.897 205.532 224.301 204.999 224.694C202.412 226.678 199.582 228.376 196.573 229.75C195.461 230.285 194.3 230.743 193.132 231.218C191.948 231.648 190.755 232.097 189.527 232.462C187.058 233.236 184.539 233.849 181.991 234.299C179.43 234.757 176.848 235.071 174.259 235.237C171.702 235.39 169.144 235.415 166.598 235.313C160.812 235.045 155.118 234.134 149.642 232.6C146.909 231.828 144.243 230.894 141.659 229.803C139.097 228.695 136.606 227.461 134.2 226.107C124.61 220.662 116.612 213.281 110.11 205.044C109.319 203.999 108.482 202.98 107.722 201.916L105.464 198.709L103.352 195.421C102.66 194.319 102.029 193.185 101.365 192.068C98.8044 187.556 96.5415 182.9 94.5873 178.123C93.6216 175.737 92.6671 173.33 91.8858 170.852C91.6738 170.24 91.4849 169.618 91.3037 168.994C91.1215 168.37 90.9267 167.749 90.755 167.121C90.4349 165.858 90.0792 164.604 89.8239 163.318C88.6223 158.142 88.213 152.807 88.6072 147.459C88.884 144.402 89.5373 141.366 90.5548 138.409C91.6023 135.372 93.1284 132.47 95.084 129.798C98.9732 124.553 104.316 120.309 110.532 117.526L111.415 117.114L112.316 116.746C112.918 116.504 113.514 116.249 114.12 116.019C115.346 115.601 116.556 115.134 117.805 114.796C120.277 114.056 122.796 113.478 125.342 113.066L127.251 112.786C127.887 112.684 128.529 112.652 129.167 112.582C130.445 112.435 131.727 112.395 133.007 112.33C135.539 112.257 138.067 112.315 140.578 112.505C150.605 113.254 160.069 115.869 169.031 119.006C171.276 119.792 173.498 120.607 175.698 121.453L178.995 122.723L182.27 124.037C184.459 124.901 186.609 125.839 188.776 126.745C190.92 127.692 193.079 128.613 195.199 129.601C203.723 133.476 212.008 137.747 220.039 142.345C224.293 144.802 228.493 147.338 232.639 149.954C236.772 152.587 240.849 155.299 244.871 158.092C245.464 158.504 245.866 159.103 246.004 159.782C246.142 160.46 246.006 161.173 245.621 161.791C245.236 162.409 244.628 162.893 243.906 163.154C243.183 163.416 242.394 163.438 241.681 163.217L241.667 163.212C233.226 160.66 224.599 158.58 215.832 156.986C207.03 155.325 198.123 153.916 189.187 152.603L191.143 147.107L191.353 147.188C205.456 152.563 219.304 158.487 232.763 165.015C246.23 171.535 259.298 178.637 272.145 185.981L268.372 189.369C265.858 185.479 263.458 181.532 261.171 177.527C258.882 173.524 256.736 169.45 254.674 165.339C252.632 161.217 250.72 157.038 248.938 152.801C247.193 148.55 245.563 144.252 244.14 139.878C242.247 134.154 240.876 128.277 240.041 122.305L244.022 122.386C243.6 123.736 243.279 125.106 243.061 126.488L242.881 127.547L242.741 128.616C242.643 129.327 242.551 130.038 242.487 130.752C242.184 133.6 241.997 136.432 241.883 139.219C241.764 142.007 241.692 144.756 241.695 147.454C241.692 150.153 241.724 152.806 241.87 155.405C242.059 158.965 242.015 160.732 241.389 160.619C240.825 160.501 239.61 158.414 238.773 154.256C237.844 148.975 237.281 143.629 237.088 138.251C236.998 135.52 236.967 132.766 237.103 129.958C237.182 128.549 237.275 127.135 237.458 125.682C237.52 124.97 237.676 124.207 237.793 123.467C237.844 123.103 237.938 122.709 238.038 122.312L238.333 121.13C238.529 120.34 239.017 119.622 239.712 119.099C240.408 118.575 241.269 118.277 242.15 118.255C243.032 118.233 243.88 118.488 244.552 118.978C245.224 119.468 245.679 120.162 245.839 120.943L245.907 121.284L246.726 125.296C247.807 130.012 249.182 134.757 250.774 139.471C252.365 144.186 254.179 148.87 256.225 153.439C256.274 153.449 256.323 153.461 256.37 153.476Z" fill="#25262A"/>
</svg>
