<svg width="252" height="253" viewBox="0 0 252 253" fill="none" xmlns="http://www.w3.org/2000/svg">
<path d="M142.717 119.05L140.042 117.891C139.148 117.51 138.224 117.201 137.316 116.852L135.948 116.341C135.489 116.179 135.021 116.045 134.558 115.896L131.77 115.022C129.881 114.555 128.01 113.993 126.093 113.654L124.662 113.363C124.185 113.262 123.708 113.165 123.226 113.105L120.34 112.681C119.86 112.598 119.376 112.562 118.893 112.52L117.443 112.39L115.992 112.258C115.508 112.216 115.025 112.223 114.541 112.202C113.573 112.177 112.604 112.135 111.636 112.122L108.741 112.218C107.801 112.239 106.863 112.311 105.93 112.434C105.006 112.547 104.085 112.706 103.17 112.895C101.337 113.284 99.5362 113.815 97.7847 114.482C94.0953 115.847 90.7247 117.958 87.8812 120.684C86.5334 122.006 85.3912 123.523 84.4929 125.186C83.6349 126.806 83.0814 128.571 82.8602 130.392C82.8232 130.643 82.7988 130.896 82.7869 131.149L82.746 131.911L82.7416 131.994C82.7133 132.521 82.5361 133.028 82.231 133.457C81.9258 133.885 81.5052 134.218 81.0184 134.415C80.5317 134.612 79.9989 134.666 79.4826 134.57C78.9662 134.474 78.4877 134.232 78.103 133.873C75.4739 131.418 71.822 130.153 68.0743 130.109C64.2729 130.073 60.5419 131.133 57.3243 133.164C55.7516 134.154 54.3465 135.39 53.1622 136.825C52.5781 137.538 52.0636 138.306 51.6257 139.118L51.2697 139.723C51.162 139.931 51.0741 140.15 50.9744 140.362C50.789 140.794 50.5649 141.207 50.4045 141.65C49.7373 143.43 49.3014 145.29 49.1076 147.182C48.9334 149.106 48.9803 151.043 49.2474 152.956C49.8008 156.818 51.2055 160.508 53.359 163.757C54.4456 165.356 55.6933 166.838 57.0824 168.181C58.5169 169.52 60.0711 170.724 61.7255 171.776C68.4251 175.971 76.7376 177.674 84.7588 177.046L84.7748 177.045C85.3936 176.996 86.0123 177.142 86.5462 177.46C87.08 177.779 87.5027 178.255 87.7564 178.825C88.0101 179.394 88.0823 180.028 87.9632 180.639C87.844 181.251 87.5393 181.811 87.0909 182.241C85.667 183.642 84.7848 185.506 84.6011 187.5C84.4842 188.57 84.5073 189.65 84.6699 190.714C84.8431 191.811 85.1391 192.885 85.5523 193.915C86.3602 195.977 87.662 197.807 89.3424 199.244L89.6518 199.499L90.0005 199.746L90.6944 200.247L91.4285 200.693C91.6695 200.85 91.92 200.991 92.1785 201.116L92.948 201.511C93.2106 201.633 93.4821 201.74 93.7481 201.857C94.286 202.087 94.8361 202.287 95.396 202.456C98.8451 203.506 102.633 203.718 106.415 203.446C108.321 203.305 110.215 203.043 112.087 202.661C113.029 202.531 113.955 202.313 114.886 202.121L116.267 201.773C116.498 201.719 116.726 201.651 116.949 201.57C117.181 201.521 117.41 201.46 117.636 201.386C118.093 201.256 118.548 201.123 118.99 200.959C119.435 200.8 119.887 200.655 120.328 200.487C121.2 200.139 122.052 199.745 122.883 199.307C124.53 198.476 126.082 197.467 127.51 196.298C127.685 196.154 127.872 196.02 128.039 195.869L128.529 195.406C128.865 195.11 129.185 194.796 129.485 194.463L130.372 193.47L131.156 192.411C132.114 190.965 132.844 189.38 133.321 187.711L133.329 187.685C133.536 186.96 134.021 186.347 134.678 185.982C135.336 185.617 136.11 185.529 136.833 185.737C137.127 185.824 137.406 185.956 137.659 186.13C139.488 187.397 141.345 188.613 143.235 189.76C145.13 190.894 147.049 191.973 149.002 192.965C150.96 193.94 152.944 194.846 154.961 195.636C156.969 196.413 159.019 197.078 161.099 197.628C163.161 198.152 165.255 198.54 167.367 198.79C169.446 199.016 171.541 199.072 173.628 198.956C175.704 198.813 177.763 198.492 179.784 197.998C181.789 197.493 183.742 196.804 185.621 195.939C186.099 195.747 186.534 195.474 186.993 195.248L187.674 194.894C187.898 194.772 188.108 194.628 188.327 194.497C188.756 194.225 189.201 193.974 189.619 193.688L190.848 192.798C192.441 191.59 193.887 190.198 195.156 188.65C195.48 188.274 195.737 187.851 196.034 187.456L196.466 186.854L196.837 186.216C197.07 185.787 197.379 185.378 197.585 184.953L197.911 184.321L198.202 183.667C198.958 181.871 199.431 179.968 199.602 178.025C199.799 177.04 199.912 176.04 199.941 175.036C199.988 174.02 199.899 173.003 199.675 172.011C199.3 170.023 198.617 168.105 197.651 166.329C195.709 162.824 192.615 160.136 189.024 159.077C188.471 158.914 187.981 158.586 187.617 158.137C187.253 157.687 187.034 157.138 186.988 156.561C186.941 155.984 187.071 155.407 187.359 154.906C187.646 154.405 188.079 154.003 188.599 153.754L188.754 153.681C190.319 152.938 191.804 152.035 193.184 150.985C193.52 150.712 193.878 150.467 194.198 150.174L195.17 149.312L196.084 148.39C196.394 148.089 196.657 147.744 196.947 147.426C199.505 144.647 201.343 141.28 202.3 137.619L202.587 136.251L202.764 134.868C202.804 134.409 202.802 133.955 202.829 133.496C202.854 133.037 202.791 132.577 202.781 132.115C202.636 130.251 202.208 128.419 201.515 126.684C201.194 125.881 200.833 125.096 200.431 124.332C200.223 123.976 200.014 123.63 199.819 123.284C199.633 122.93 199.384 122.636 199.181 122.315C198.778 121.667 198.295 121.138 197.882 120.58C197.661 120.317 197.426 120.08 197.209 119.833C197.002 119.588 196.782 119.354 196.551 119.133C195.094 117.703 193.482 116.442 191.744 115.375C189.71 114.255 189.652 113.629 191.91 113.631C192.603 113.677 193.29 113.78 193.966 113.94C194.365 114.048 194.786 114.196 195.244 114.351C195.47 114.434 195.715 114.503 195.947 114.612L196.666 114.954C199.087 116.157 201.222 117.87 202.925 119.976C205.61 123.228 207.34 127.166 207.922 131.349L208.09 132.971C208.106 133.516 208.109 134.064 208.114 134.611C208.121 134.883 208.111 135.155 208.084 135.425L208.02 136.233C207.996 136.501 207.982 136.772 207.947 137.038L207.818 137.835C207.491 139.936 206.878 141.981 205.996 143.914C205.255 145.571 204.349 147.148 203.294 148.623C202.796 149.378 202.199 150.053 201.643 150.76C201.347 151.098 201.035 151.422 200.726 151.746C200.423 152.078 200.096 152.384 199.765 152.685C197.158 155.132 194.139 157.096 190.849 158.485L190.629 154.089C194.374 155.419 197.627 157.865 199.954 161.099C200.523 161.878 201.046 162.69 201.52 163.531C201.764 163.945 201.974 164.376 202.201 164.799C202.401 165.233 202.613 165.663 202.798 166.103C203.538 167.859 204.098 169.686 204.469 171.556C204.654 172.489 204.767 173.432 204.935 174.374C205.069 175.325 205.155 176.282 205.191 177.241C205.245 178.209 205.2 179.179 205.055 180.137C204.932 181.103 204.754 182.06 204.521 183.005C204.054 184.916 203.337 186.756 202.39 188.478C201.934 189.33 201.422 190.15 200.859 190.934L200.017 192.11C199.715 192.484 199.397 192.844 199.087 193.211C196.589 196.1 193.576 198.495 190.202 200.272C186.89 202.034 183.342 203.307 179.667 204.051C179.213 204.161 178.753 204.235 178.292 204.304L176.911 204.52C175.987 204.64 175.057 204.711 174.129 204.798C173.197 204.821 172.265 204.885 171.331 204.869L169.93 204.831L169.229 204.808L168.539 204.75C164.868 204.458 161.237 203.777 157.708 202.719C153.471 201.43 149.368 199.731 145.457 197.647C141.633 195.608 137.952 193.31 134.44 190.768L138.757 189.195C138.549 189.8 138.345 190.398 138.143 190.988C138.044 191.282 137.923 191.569 137.783 191.846L137.385 192.68C135.72 195.951 133.339 198.801 130.421 201.016L129.897 201.433L129.352 201.812L128.259 202.565C127.513 203.028 126.762 203.488 125.996 203.909C125.219 204.299 124.458 204.738 123.659 205.072C123.265 205.252 122.867 205.424 122.478 205.616C122.084 205.795 121.682 205.95 121.283 206.118C119.69 206.778 118.059 207.34 116.398 207.8C115.568 208.021 114.733 208.23 113.895 208.422C113.479 208.529 113.051 208.583 112.629 208.662C112.205 208.74 111.782 208.802 111.36 208.855C109.664 209.097 107.957 209.25 106.245 209.313C104.513 209.391 102.779 209.353 101.052 209.201C99.2964 209.058 97.5551 208.772 95.8451 208.347C94.1044 207.907 92.4058 207.313 90.7692 206.572C89.112 205.792 87.5461 204.829 86.1004 203.702C84.6264 202.511 83.3418 201.101 82.2909 199.52C80.1736 196.383 78.9983 192.701 78.9048 188.913C78.8663 186.949 79.1924 184.995 79.8662 183.151C80.5712 181.244 81.6927 179.519 83.1484 178.104L85.2339 182.75C81.3818 183.064 77.5056 182.906 73.6908 182.278C67.8628 181.327 62.3039 179.134 57.3877 175.847C54.9059 174.163 52.6565 172.156 50.6981 169.88C47.7621 166.392 45.6216 162.301 44.4269 157.895C43.2322 153.489 43.0122 148.875 43.7825 144.377C44.3465 141.331 45.4639 138.416 47.0789 135.777C47.8815 134.425 48.8409 133.174 49.937 132.049C51.0184 130.928 52.2123 129.923 53.4995 129.049C57.6756 126.212 62.6032 124.697 67.647 124.7C68.9094 124.698 70.1697 124.806 71.4139 125.021C72.6725 125.227 73.9088 125.553 75.1064 125.994C76.318 126.434 77.4835 126.992 78.5859 127.662C79.6896 128.344 80.7246 129.132 81.6763 130.015L77.4985 131.781C77.5691 129.614 77.9792 127.472 78.7136 125.434C79.4503 123.427 80.4768 121.539 81.7602 119.832C83.0081 118.163 84.4495 116.648 86.054 115.321C87.6205 114.013 89.3052 112.854 91.0861 111.86C94.6074 109.906 98.403 108.498 102.344 107.683C103.327 107.487 104.314 107.311 105.311 107.188C105.808 107.122 106.307 107.064 106.809 107.025C107.314 106.971 107.803 106.952 108.29 106.935L111.223 106.823C111.712 106.791 112.199 106.82 112.687 106.828L114.15 106.863C116.105 106.86 118.039 107.094 119.98 107.241C120.948 107.336 121.906 107.5 122.87 107.627C123.832 107.763 124.796 107.883 125.745 108.091L128.602 108.653C129.552 108.848 130.486 109.115 131.428 109.343C133.32 109.775 135.158 110.4 137.013 110.96C140.697 112.179 144.291 113.654 147.77 115.375C149.533 116.188 151.203 117.192 152.903 118.133C153.743 118.621 154.55 119.171 155.374 119.688L156.604 120.475C157.01 120.744 157.397 121.044 157.794 121.328C161.82 124.133 165.431 127.498 168.518 131.32L165.471 132.676C165.303 131.227 165.336 129.762 165.569 128.323C165.803 126.906 166.25 125.533 166.893 124.25C168.159 121.843 169.985 119.778 172.216 118.232C176.252 115.446 181.061 114.01 185.958 114.13C187.071 114.137 188.173 114.352 189.208 114.765C189.852 115.08 190.072 115.365 189.931 115.582C189.634 116.044 187.991 116.085 184.904 116.66C180.858 117.384 177.096 119.228 174.041 121.986C172.647 123.27 171.566 124.86 170.883 126.632C170.573 127.473 170.377 128.351 170.299 129.245C170.239 130.155 170.28 131.069 170.421 131.971C170.523 132.658 170.404 133.36 170.083 133.975C169.761 134.59 169.252 135.086 168.631 135.391C168.009 135.696 167.307 135.794 166.625 135.671C165.944 135.548 165.319 135.211 164.842 134.707L164.673 134.528L162.966 132.706C160.127 129.823 157.013 127.226 153.67 124.952C150.226 122.664 146.599 120.669 142.825 118.987C142.79 119.009 142.758 119.029 142.717 119.05Z" fill="black"/>
<path d="M154.703 95.0841C153.595 94.9526 152.496 94.749 151.414 94.4745C148.238 93.6379 145.246 92.2079 142.596 90.2593C141.669 89.582 140.784 88.8491 139.944 88.0645C138.986 87.165 138.157 86.1362 137.481 85.0078C137.022 84.2592 136.647 83.4613 136.365 82.6292C136.062 81.7731 135.869 80.8819 135.791 79.977C135.749 79.5091 135.736 79.0391 135.754 78.5697C135.782 78.0875 135.845 77.608 135.941 77.1347C136.037 76.6525 136.172 76.1789 136.343 75.7183C136.522 75.259 136.733 74.8133 136.976 74.3846C137.922 72.8056 139.242 71.4864 140.819 70.5444C142.19 69.7135 143.659 69.0565 145.191 68.5886C149.519 67.1933 154.101 66.7721 158.611 67.3549C160.114 67.5596 161.599 67.88 163.054 68.3131C164.691 68.7809 166.255 69.4797 167.698 70.3887C168.47 70.9279 169.173 71.5617 169.789 72.2753C170.465 73.0161 171.034 73.8485 171.479 74.748L168.283 73.2898C169.758 72.8991 171.272 72.6682 172.797 72.6012C174.313 72.5441 175.83 72.6445 177.326 72.9008C178.819 73.1555 180.28 73.5695 181.686 74.1358C182.391 74.4161 183.079 74.7367 183.747 75.0959L184.272 75.3794C184.524 75.5274 184.765 75.6941 184.993 75.8782C185.391 76.2033 185.753 76.5713 186.072 76.9757C186.632 77.6977 187.09 78.4938 187.433 79.3413C187.762 80.1871 187.967 81.076 188.043 81.9805C188.115 82.8706 188.058 83.7664 187.874 84.6397C187.699 85.5012 187.404 86.3334 186.997 87.1114C186.185 88.6534 184.99 89.9586 183.528 90.9008C183.196 91.1175 182.852 91.3165 182.499 91.497C182.166 91.6719 181.821 91.8334 181.476 91.992C180.769 92.3071 180.038 92.5677 179.291 92.7715C178.107 93.1104 176.874 93.2442 175.644 93.1671C174.406 93.0922 173.191 92.7893 172.061 92.2735C171.185 91.8859 170.415 91.2914 169.816 90.5407C169.606 90.2717 169.433 89.9763 169.299 89.6621C169.296 89.4102 169.274 89.1588 169.235 88.9099C169.095 88.0875 168.876 87.5022 169.591 87.4502C169.825 87.4455 170.058 87.4822 170.279 87.5584C170.433 87.6075 170.584 87.6666 170.731 87.7353C170.787 87.7644 170.848 87.7835 170.911 87.792L171.07 87.8312C171.298 87.8927 171.522 87.9696 171.74 88.0615C171.995 88.1382 172.246 88.2312 172.49 88.34C173.156 88.5883 173.839 88.7878 174.534 88.9371C175.24 89.07 175.958 89.1272 176.676 89.1079C177.54 89.0705 178.393 88.9022 179.206 88.6086C179.631 88.458 180.049 88.2857 180.456 88.0923C180.664 87.9979 180.865 87.8837 181.07 87.7807C181.27 87.6747 181.41 87.5711 181.586 87.4695C182.234 87.0335 182.774 86.4555 183.167 85.7791C183.56 85.1026 183.795 84.3454 183.854 83.5644C183.914 82.8165 183.8 82.0648 183.52 81.3689C183.383 81.0306 183.206 80.7101 182.993 80.4144C182.805 80.1333 182.578 79.8814 182.317 79.6666C182.229 79.5956 182.131 79.5368 182.028 79.4917C182.003 79.4839 181.979 79.4741 181.956 79.4626L181.8 79.3934L181.49 79.2548C181.286 79.1578 181.073 79.0792 180.862 78.9984C180.652 78.9154 180.441 78.8357 180.224 78.7702C179.369 78.4827 178.489 78.275 177.596 78.1496C176.609 78.0175 175.612 77.9668 174.616 77.998C173.626 78.0232 172.658 78.0964 171.714 78.145C171.03 78.1841 170.349 78.2763 169.679 78.4208L169.449 78.4657C168.904 78.5719 168.34 78.4924 167.845 78.2396C167.351 77.9869 166.954 77.5755 166.719 77.0708L166.568 76.7476C166.503 76.6451 166.454 76.5348 166.382 76.433C166.246 76.214 166.076 76.0184 165.878 75.8537C165.778 75.7618 165.673 75.676 165.564 75.5965C165.454 75.5094 165.339 75.4284 165.22 75.354C165.1 75.2719 164.976 75.1969 164.848 75.1294C164.732 75.043 164.596 74.9709 164.468 74.8917C163.307 74.2507 162.056 73.7893 160.758 73.5232C157.988 72.898 155.145 72.6631 152.311 72.8254C151.121 72.8858 149.937 73.0409 148.772 73.2894C147.619 73.5311 146.487 73.8651 145.388 74.2881C144.406 74.6569 143.487 75.1747 142.662 75.8236C141.99 76.3428 141.477 77.0415 141.183 77.8398C140.678 79.1479 140.983 80.9887 141.888 82.5264C141.995 82.7225 142.129 82.9015 142.248 83.0912C142.388 83.2627 142.508 83.4557 142.66 83.616C142.801 83.7862 142.951 83.9477 143.111 84.0999C143.25 84.2457 143.462 84.4352 143.659 84.6044C144.464 85.301 145.314 85.9418 146.206 86.5222C149.761 88.876 153.981 90.2423 158.25 89.9669C161.647 89.7356 164.853 89.0778 168.186 88.608C168.411 88.5471 168.649 88.5485 168.873 88.6121C168.993 88.6369 169.013 88.7857 168.983 88.9456C168.975 88.9877 168.965 89.0327 168.952 89.0802L168.931 89.1535L168.92 89.1914L168.914 89.2106L168.911 89.2201L168.909 89.2249L168.908 89.2274L168.908 89.2286L168.906 89.2599C168.873 89.3822 168.835 89.5231 168.804 89.6776C168.771 89.8381 168.751 90.0009 168.744 90.1646C168.731 90.3204 168.759 90.5177 168.744 90.5897C168.784 90.6305 168.616 90.7577 168.5 90.8664L168.13 91.1986C167.88 91.4171 167.636 91.6544 167.368 91.8626C167.108 92.079 166.829 92.272 166.535 92.4393C166.251 92.6232 165.946 92.773 165.646 92.9367C165.048 93.2699 164.411 93.5438 163.771 93.8215C163.119 94.0787 162.452 94.3004 161.776 94.4855C160.64 94.7952 159.474 94.981 158.298 95.0399C157.109 95.0933 155.919 95.0774 154.732 94.9923L154.703 95.0841Z" fill="black"/>
<path d="M194.278 52.3946C192.402 52.6879 190.492 52.6917 188.615 52.406C187.648 52.2664 186.704 52.0548 185.74 51.8778C184.342 51.6446 182.994 51.1729 181.755 50.4833C181.023 50.0661 180.362 49.5342 179.797 48.9079C179.142 48.1769 178.667 47.3029 178.408 46.3553C178.146 45.3792 178.127 44.3538 178.352 43.369C178.555 42.4867 178.918 41.6495 179.422 40.8993C180.301 39.6185 181.464 38.5613 182.821 37.8117C183.572 37.3853 184.369 37.0481 185.197 36.807C185.599 36.6821 186.002 36.5835 186.405 36.4944C186.851 36.3934 187.303 36.3235 187.758 36.2851C188.205 36.249 188.659 36.2352 189.073 36.2384C189.449 36.2435 189.825 36.2558 190.202 36.2754C190.956 36.3137 191.712 36.3945 192.471 36.492C194.04 36.6771 195.579 37.0549 197.056 37.6169C197.445 37.763 197.826 37.9287 198.197 38.1135C198.386 38.2084 198.575 38.2973 198.76 38.4072L199.039 38.5663L199.178 38.6463L199.357 38.7654C200.331 39.4016 201.092 40.3176 201.541 41.3941C201.794 42.0237 201.915 42.6987 201.896 43.3771C201.876 44.0554 201.718 44.7223 201.43 45.336C201.223 45.8274 200.841 46.2237 200.359 46.4481C200.161 46.5322 199.95 46.5811 199.736 46.5927C199.53 46.5964 199.325 46.569 199.127 46.5113C198.879 46.425 198.651 46.2901 198.455 46.1144C198.26 45.9386 198.101 45.7256 197.988 45.4876C197.79 45.1566 197.657 44.7905 197.597 44.4093C197.578 44.0864 197.577 43.7626 197.595 43.4397C197.596 43.2543 197.559 43.0708 197.485 42.9009C197.411 42.731 197.303 42.5786 197.166 42.4537C197.131 42.4218 197.088 42.3969 197.051 42.3652C197.031 42.3476 197.01 42.3312 196.988 42.316L196.879 42.2521C196.735 42.1629 196.586 42.081 196.433 42.0069C196.121 41.8488 195.798 41.7148 195.466 41.606C194.043 41.1661 192.545 41.0327 191.068 41.2147C190.648 41.2643 190.222 41.344 189.8 41.4052C189.59 41.4319 189.379 41.4621 189.171 41.4696C189.005 41.4789 188.837 41.4779 188.671 41.4665C188.423 41.4475 188.174 41.4552 187.928 41.4893C187.821 41.5012 187.664 41.542 187.525 41.5746C187.383 41.6059 187.243 41.6452 187.105 41.6924C186.572 41.8677 186.06 42.103 185.58 42.3935C184.794 42.8536 184.129 43.4969 183.643 44.2692C183.531 44.4362 183.461 44.6284 183.44 44.8289C183.423 44.9805 183.449 45.1341 183.517 45.271C183.802 45.7414 184.218 46.1185 184.712 46.3565C186.11 47.0698 187.641 47.4814 189.207 47.5647C190.032 47.6293 190.861 47.6229 191.685 47.5455C192.496 47.4579 193.297 47.2947 194.077 47.0579C194.383 46.9556 194.7 46.8874 195.008 46.8027C195.164 46.7654 195.326 46.7369 195.491 46.7123C195.656 46.6778 195.823 46.654 195.992 46.641C196.346 46.6188 196.696 46.5806 197.078 46.5634L198.288 46.527C198.482 46.5135 198.677 46.5477 198.855 46.6266C199.033 46.7055 199.189 46.8269 199.311 46.9801C199.432 47.1333 199.514 47.3138 199.55 47.506C199.586 47.6982 199.575 47.8962 199.518 48.0831L199.38 48.5849C199.319 48.733 199.241 48.8735 199.148 49.0033C198.976 49.27 198.792 49.5373 198.596 49.8008C198.389 50.0463 198.172 50.2888 197.943 50.5286C197.708 50.7512 197.454 50.953 197.185 51.1316C196.289 51.6951 195.299 52.0912 194.262 52.3008L194.278 52.3946Z" fill="black"/>
</svg>
