<svg width="1512" height="1086" viewBox="0 0 1512 1086" fill="none" xmlns="http://www.w3.org/2000/svg">
<g clip-path="url(#clip0_7_14)">
<path d="M1468.52 1086H1468.28C1442.47 1085.58 1413.76 1079.65 1389.5 1069.72C1370.22 1061.82 1345.14 1047.87 1335.16 1026.23C1325.29 1001.62 1339.48 976.057 1353.2 951.335C1368.37 924.008 1382.69 898.194 1367.19 873.709C1272.2 785.507 1110.62 808.111 992.589 869.636L992.372 869.712C916.852 886.968 858.275 895.618 813.299 896.169C771.683 896.665 742.478 890.185 724.029 876.338C704.388 861.597 697.06 838.855 700.96 804.772C704.427 774.426 716.405 738.578 729.082 700.629C747.048 646.822 765.635 591.19 765.251 539.171C764.808 479.84 738.735 436.45 685.545 406.524C589.547 341.148 468.678 373.358 362.022 401.778C355.55 403.505 349.128 405.217 342.765 406.891L342.647 406.914C293.21 413.837 237.508 414.311 181.54 408.289C127.799 402.504 73.8009 390.789 25.398 374.398L25.1911 374.329L25.0631 374.191C-2.03426 344.258 -23.6255 308.25 -35.7114 272.807C-49.265 233.084 -50.644 195.288 -39.7007 163.498L-38.1739 163.811C-63.6263 237.761 -19.4097 322.861 26.2254 373.351C126.548 407.281 244.679 419.385 342.302 405.722C348.645 404.048 355.048 402.344 361.5 400.625C468.549 372.097 589.892 339.765 686.51 405.576C740.084 435.716 766.364 479.427 766.807 539.171C767.192 591.35 748.585 647.067 730.589 700.942C704.989 777.582 682.885 843.768 725.112 875.467C743.246 889.077 772.097 895.473 813.26 894.953C858.078 894.411 916.478 885.783 991.801 868.574C1053.72 836.318 1122.51 817.014 1185.54 814.233C1221.09 812.658 1254.18 816.38 1283.86 825.283C1316.46 835.057 1344.91 851.104 1368.47 872.983L1368.56 873.105C1384.45 898.11 1369.29 925.414 1354.65 951.817C1341.04 976.332 1326.97 1001.68 1336.66 1025.84C1346.45 1047.08 1371.2 1060.84 1390.24 1068.63C1414.21 1078.44 1442.56 1084.31 1468.06 1084.76C1504.39 1065.99 1533.93 1038.48 1562.49 1011.86C1580.14 995.421 1598.38 978.418 1618 963.715L1619.09 964.594C1599.54 979.251 1581.31 996.223 1563.7 1012.64C1535.01 1039.37 1505.33 1067.02 1468.73 1085.89L1468.52 1085.99V1086Z" fill="#1B5AFF" fill-opacity="0.13"/>
<path d="M1480.8 1001.93C1447.07 1001.93 1409.73 992.563 1384.97 977.501C1372.92 970.157 1364.33 961.957 1359.45 953.123C1347.13 930.779 1358.93 905.27 1370.35 880.61C1383.21 852.832 1395.36 826.589 1374.46 805.689C1288.93 720.1 1145.59 767.35 1016.66 824.855C925.618 865.464 860.638 885.287 817.367 885.287C801.548 885.287 788.644 882.642 778.41 877.392C734.331 854.795 744.871 786.195 757.085 706.757C765.467 652.233 774.973 590.425 767.427 535.694C758.789 472.985 729.062 429.213 676.571 401.87C585.252 354.307 490.258 382.292 398.387 409.352C382.352 414.074 365.764 418.965 349.65 423.29C294.539 438.085 230.435 436.251 180.732 433.003C133.708 429.931 86.2016 421.953 43.3442 409.948L43.1472 409.894L43.0093 409.772C20.1179 389.116 0.122406 364.402 -14.8102 338.298C-30.8066 310.336 -40.4497 281.465 -42.7152 254.818C-43.8972 240.925 -42.9812 227.376 -39.9868 214.545L-38.4305 214.759C-41.3953 227.483 -42.3015 240.933 -41.1294 254.734C-36.7461 306.286 -4.10323 365.327 44.0731 408.847C86.7433 420.791 134.043 428.724 180.86 431.78C230.396 435.021 294.293 436.847 349.128 422.129C365.222 417.811 381.79 412.928 397.826 408.205C490.071 381.031 585.459 352.932 677.448 400.846C730.352 428.403 760.296 472.466 768.994 535.557C776.558 590.425 767.043 652.301 758.651 706.895C746.496 785.927 736.006 854.184 779.277 876.361C797.5 885.707 824.213 886.525 860.924 878.867C900.668 870.576 951.356 852.556 1015.88 823.777C1072.64 798.467 1139.39 771.27 1204.24 761.488C1238.88 756.261 1270.15 756.628 1297.19 762.581C1327.99 769.359 1354.41 783.604 1375.71 804.925C1397.14 826.352 1384.85 852.9 1371.83 881.007C1360.52 905.446 1348.82 930.725 1360.9 952.627C1365.67 961.27 1374.09 969.309 1385.94 976.523C1412.94 992.96 1455.1 1002.54 1490.94 1000.4C1507.18 990.905 1522.72 978.869 1538.42 963.608C1551.04 951.389 1563.05 938.168 1574.66 925.383C1589.88 908.632 1605.61 891.316 1622.87 876.101L1624.05 876.911C1606.84 892.065 1591.14 909.358 1575.95 926.086C1564.33 938.886 1552.31 952.122 1539.65 964.372C1523.8 979.771 1508.12 991.906 1491.7 1001.48L1491.51 1001.59L1491.28 1001.6C1487.84 1001.82 1484.33 1001.92 1480.78 1001.92L1480.8 1001.93Z" fill="#1B5AFF" fill-opacity="0.13"/>
<path d="M1490.15 918.957C1462.39 918.957 1432.74 912.728 1410.85 901.724C1398.57 895.55 1389.46 888.252 1383.76 880.037C1369.48 859.419 1377.96 834.185 1386.16 809.777C1395.38 782.282 1404.11 756.307 1381.76 737.676C1290.24 661.357 1158.08 716.256 1040.87 780.027C952.214 828.263 889.577 851.632 847.932 851.632C836.486 851.632 826.626 849.866 818.244 846.366C773.446 827.644 775.928 761.16 778.794 684.168C780.764 631.325 783 571.435 769.673 519.463C754.406 459.925 721.044 419.951 667.677 397.254C575.156 357.914 487.49 390.896 402.712 422.801C387.562 428.502 371.901 434.394 356.633 439.697C303.542 458.114 239.812 459.933 196.492 459.704C147.991 459.444 102.513 454.668 61.3401 445.52L61.1628 445.482L61.025 445.383C9.95271 408.473 -28.1372 354.46 -38.3911 304.391C-41.0703 291.3 -41.6908 278.255 -40.2232 265.608L-38.6472 265.715C-40.105 278.255 -39.4844 291.208 -36.8249 304.192C-26.6302 353.956 11.2135 407.647 61.9607 444.359C102.956 453.453 148.217 458.198 196.512 458.458C239.684 458.695 303.187 456.884 355.993 438.559C371.241 433.271 386.892 427.379 402.032 421.685C487.175 389.643 575.205 356.516 668.445 396.162C722.246 419.041 755.873 459.291 771.23 519.211C784.586 571.321 782.35 631.286 780.38 684.191C777.524 760.778 775.061 826.91 819.002 845.274C837.51 853.007 863.199 852.006 897.536 842.209C934.72 831.602 981.31 810.931 1039.98 779.011C1091.57 750.935 1152.56 720.39 1213.65 706.666C1246.3 699.337 1276.32 697.587 1302.91 701.484C1333.2 705.924 1360.13 717.815 1382.93 736.828C1405.87 755.956 1397.05 782.244 1387.7 810.075C1379.59 834.254 1371.19 859.258 1385.18 879.448C1390.75 887.48 1399.68 894.633 1411.74 900.693C1439.8 914.807 1480.81 920.974 1513.87 916.06C1529.22 905.904 1543.16 893.379 1556.48 877.79C1567.05 865.425 1576.97 852.174 1586.57 839.359C1599.46 822.157 1612.78 804.367 1627.81 788.518L1629.08 789.244C1614.1 805.039 1600.8 822.799 1587.93 839.97C1578.32 852.801 1568.39 866.067 1557.79 878.462C1544.34 894.205 1530.25 906.844 1514.73 917.092L1514.57 917.199L1514.36 917.23C1506.64 918.391 1498.49 918.949 1490.17 918.949L1490.15 918.957Z" fill="#1B5AFF" fill-opacity="0.13"/>
<path d="M1499.53 837.212C1477.69 837.212 1455.11 833.337 1436.73 825.94C1424.25 820.904 1414.6 814.515 1408.09 806.935C1391.85 788.051 1396.99 763.078 1401.97 738.93C1407.58 711.717 1412.88 686.017 1389.06 669.641C1291.55 602.591 1170.56 665.14 1065.06 735.17C963.324 802.716 897.546 828.187 858.077 815.31C812.56 800.47 806.975 736.094 800.494 661.556C796.052 610.401 791.008 552.415 771.909 503.209C750.023 446.835 713.016 410.658 658.772 392.608C565.01 361.406 484.565 399.402 406.78 436.152C392.605 442.846 377.949 449.769 363.597 456.066C318.78 475.729 264.368 482.247 212.262 486.359C167.789 489.866 121.809 488.032 79.3164 481.055L79.1489 481.024L79.011 480.948C25.496 450.877 -17.8342 402.222 -34.0867 353.963C-38.2335 341.652 -40.3808 329.104 -40.4793 316.671H-38.9033C-38.8048 328.99 -36.6772 341.438 -32.5599 353.65C-16.4158 401.603 26.6287 449.953 79.799 479.878C122.095 486.817 167.838 488.628 212.094 485.136C264.033 481.032 318.248 474.544 362.819 454.996C377.151 448.707 391.798 441.791 405.962 435.097C484.092 398.187 564.882 360.023 659.403 391.477C714.1 409.68 751.401 446.109 773.426 502.85C792.584 552.193 797.628 610.248 802.07 661.472C808.512 735.605 814.077 799.637 858.688 814.179C877.472 820.308 902.146 817.48 934.119 805.544C968.742 792.614 1011.23 769.291 1064.04 734.238C1110.48 703.403 1165.69 669.503 1223.03 651.835C1253.66 642.398 1282.45 638.539 1308.6 640.38C1338.38 642.474 1365.8 652.011 1390.11 668.724C1414.57 685.544 1409.21 711.564 1403.54 739.121C1398.62 763.04 1393.51 787.776 1409.41 806.254C1415.77 813.652 1425.22 819.91 1437.47 824.847C1466.6 836.585 1506.47 839.336 1536.74 831.717C1551.07 820.95 1563.78 807.576 1574.5 791.964C1583.12 779.409 1591.05 766.066 1598.72 753.159C1609.18 735.56 1619.99 717.364 1632.69 700.934L1634.04 701.561C1621.39 717.937 1610.6 736.102 1600.15 753.671C1592.46 766.593 1584.52 779.951 1575.89 792.537C1565.06 808.31 1552.22 821.821 1537.71 832.695L1537.58 832.795L1537.4 832.84C1525.81 835.783 1512.81 837.212 1499.54 837.212H1499.53Z" fill="#1B5AFF" fill-opacity="0.13"/>
<path d="M913.237 785.981C907.82 785.981 902.717 785.407 897.911 784.269C851.684 773.31 838.023 711.052 822.203 638.966C811.349 589.493 799.036 533.425 774.155 486.97C745.649 433.76 704.998 401.381 649.878 387.97C554.815 364.845 481.482 407.877 410.572 449.487C397.462 457.182 383.898 465.137 370.561 472.443C330.245 494.512 278.227 504.989 228.012 513.029C185.056 519.906 139.845 521.144 97.2729 516.605L97.1351 516.59L97.007 516.536C41.1575 493.213 -7.42271 449.922 -29.7822 403.551C-35.3672 391.974 -39.0511 379.93 -40.7354 367.757L-39.1693 367.627C-37.4948 379.701 -33.8404 391.645 -28.3146 403.123C-6.10281 449.196 42.1425 492.212 97.6177 515.413C139.973 519.914 184.938 518.676 227.677 511.836C277.715 503.82 329.546 493.381 369.635 471.449C382.962 464.159 396.506 456.204 409.607 448.516C480.842 406.715 554.5 363.493 650.331 386.808C705.924 400.326 746.89 432.942 775.593 486.504C800.543 533.081 812.866 589.226 823.74 638.76C839.47 710.448 853.063 772.37 898.354 783.1C917.433 787.624 941.093 782.97 970.692 768.893C1002.75 753.64 1041.16 727.666 1088.09 689.479C1129.39 655.886 1178.82 618.632 1232.4 597.02C1261.02 585.473 1288.57 579.505 1314.26 579.291C1343.52 579.039 1371.46 586.222 1397.27 600.627C1423.24 615.132 1421.35 640.892 1419.34 668.158C1417.6 691.818 1415.79 716.287 1433.62 733.068C1440.78 739.809 1450.73 745.173 1463.19 749.017C1493.36 758.317 1532.08 757.66 1559.6 747.389C1573.1 735.842 1584.17 721.972 1592.49 706.146C1599.2 693.399 1605.18 679.957 1610.96 666.951C1618.96 648.962 1627.22 630.369 1637.55 613.351L1638.98 613.871C1628.69 630.828 1620.44 649.398 1612.45 667.348C1606.66 680.37 1600.68 693.827 1593.95 706.605C1585.53 722.599 1574.33 736.629 1560.66 748.291L1560.56 748.383L1560.42 748.436C1532.52 758.89 1493.2 759.578 1462.6 750.148C1449.88 746.228 1439.72 740.741 1432.39 733.84C1414.18 716.692 1416 691.986 1417.75 668.082C1419.73 641.16 1421.61 615.72 1396.33 601.613C1292.83 543.818 1183.01 614.023 1089.23 690.32C1009.62 755.085 952.972 785.981 913.217 785.981H913.237Z" fill="#1B5AFF" fill-opacity="0.13"/>
<path d="M947.239 753.915C943.989 753.915 940.827 753.686 937.754 753.22C890.828 746.151 869.089 686.01 843.923 616.369C826.646 568.585 807.074 514.419 776.411 470.731C741.286 420.684 696.99 392.096 640.993 383.331C544.532 368.231 478.222 416.344 414.088 462.875C402.13 471.549 389.769 480.52 377.525 488.819C339.593 514.534 288.599 528.565 243.772 539.699C204.392 549.48 158.727 559.315 115.141 552.147C87.9253 547.669 60.0104 535.389 34.4201 516.62C10.8392 499.327 -9.8655 477.372 -25.4581 453.139C-32.4713 442.25 -37.6819 430.71 -40.9718 418.843L-39.4254 418.583C-36.165 430.351 -30.9938 441.791 -24.0495 452.589C2.1909 493.366 52.6229 540.616 115.466 550.948C158.678 558.054 204.106 548.265 243.289 538.529C287.959 527.434 338.775 513.457 376.481 487.895C388.705 479.611 401.057 470.647 413.005 461.981C477.424 415.236 544.039 366.909 641.298 382.131C697.778 390.973 742.428 419.76 777.79 470.15C808.541 513.961 828.143 568.195 845.439 616.048C870.468 685.299 892.079 745.104 938.059 752.028C957.424 754.939 980.069 748.474 1007.3 732.258C1036.81 714.69 1071.11 686.056 1112.2 644.736C1148.34 608.384 1191.99 567.775 1241.8 542.221C1268.43 528.565 1294.72 520.487 1319.96 518.21C1348.73 515.612 1377.15 520.441 1404.45 532.538C1431.94 544.727 1433.5 570.213 1435.17 597.204C1436.61 620.611 1438.1 644.82 1457.85 659.89C1465.79 665.95 1476.25 670.428 1488.94 673.194C1519.23 679.805 1559.91 679.247 1582.51 663.077C1597.69 652.225 1604.69 636.017 1610.55 620.343C1615.38 607.406 1619.44 593.849 1623.37 580.736C1628.87 562.372 1634.55 543.382 1642.47 525.791L1643.96 526.196C1636.07 543.726 1630.4 562.685 1624.91 581.018C1620.98 594.147 1616.91 607.719 1612.06 620.695C1606.15 636.536 1599.06 652.921 1583.59 663.986C1560.53 680.469 1519.22 681.088 1488.52 674.379C1475.56 671.551 1464.88 666.974 1456.75 660.769C1436.56 645.355 1435.05 620.909 1433.59 597.265C1431.95 570.625 1430.4 545.461 1403.67 533.608C1294.18 485.067 1195.51 562.922 1113.45 645.485C1040.27 719.107 987.023 753.931 947.249 753.931L947.239 753.915Z" fill="#1B5AFF" fill-opacity="0.13"/>
<path d="M981.754 722.293C980.355 722.293 978.976 722.247 977.607 722.156C929.982 718.977 900.166 660.952 865.652 593.765C841.963 547.662 815.121 495.407 778.676 454.477C736.932 407.594 688.992 382.796 632.108 378.669C534.14 371.563 474.754 424.842 417.329 476.363C406.612 485.976 395.541 495.911 384.489 505.173C350.635 533.555 302.242 551.628 259.542 566.338C222.122 579.23 179.924 583.25 139.116 587.132L133.334 587.682C106.217 590.28 77.3661 582.287 47.5797 563.931C16.956 545.063 -6.67411 520.212 -21.1142 502.689C-29.5557 492.441 -36.3029 481.407 -41.1885 469.89L-39.6913 469.508C-34.855 480.933 -28.157 491.876 -19.7943 502.032C-2.05445 523.574 61.419 593.322 133.127 586.459L138.909 585.909C179.609 582.035 221.688 578.03 258.892 565.215C301.454 550.55 349.669 532.538 383.327 504.332C394.359 495.086 405.43 485.159 416.127 475.553C473.819 423.802 533.47 370.279 632.246 377.447C689.613 381.604 737.937 406.578 779.967 453.774C816.51 494.818 843.391 547.142 867.11 593.306C901.437 660.112 931.075 717.815 977.735 720.925C997.386 722.24 1019.03 713.948 1043.9 695.585C1070.84 675.693 1101.06 644.408 1136.27 599.947C1167.25 560.836 1205.13 516.873 1251.19 487.375C1275.81 471.617 1300.85 461.423 1325.64 457.09C1353.89 452.154 1382.81 454.614 1411.6 464.411C1440.6 474.277 1445.63 499.495 1450.96 526.188C1455.58 549.343 1460.37 573.292 1482.05 586.666C1490.74 592.023 1501.72 595.607 1514.66 597.334C1550.82 602.14 1587.28 594.659 1605.4 578.71C1619.91 565.941 1625.4 548.372 1628.57 534.495C1631.58 521.343 1633.75 507.641 1635.85 494.398C1638.82 475.683 1641.89 456.326 1647.37 438.177L1648.9 438.459C1643.45 456.548 1640.38 475.866 1637.42 494.551C1635.32 507.817 1633.14 521.526 1630.13 534.716C1626.92 548.754 1621.34 566.529 1606.58 579.528C1591.83 592.512 1565.22 600.001 1536.41 600.001C1529.16 600.001 1521.76 599.527 1514.38 598.541C1501.17 596.783 1489.95 593.115 1481.06 587.629C1458.88 573.957 1454.05 549.771 1449.38 526.379C1444.12 500.022 1439.15 475.125 1410.95 465.534C1295.45 426.24 1207.95 511.752 1137.59 600.581C1071.98 683.419 1022.28 722.27 981.724 722.278L981.754 722.293Z" fill="#1B5AFF" fill-opacity="0.13"/>
<path d="M1018.99 688.065C970.613 688.065 932.917 631.523 889.302 566.094C858.954 520.579 824.567 468.981 782.084 431.2C733.494 387.977 681.545 369.27 623.292 374.016C520.547 382.383 466.796 440.461 414.807 496.622C407.203 504.844 399.333 513.342 391.443 521.534C361.401 552.759 315.736 574.79 275.292 592.993C236.188 610.592 190.661 618.15 151.271 623.224C123.178 626.846 92.7321 621.184 60.7787 606.404C33.3465 593.711 6.51506 574.989 -16.79 552.277C-26.6893 542.633 -34.9731 532.103 -41.415 520.976L-39.9769 520.472C-33.5843 531.507 -25.3694 541.945 -15.5588 551.513C24.7376 590.785 89.6589 629.926 151.015 622.024C190.257 616.966 235.616 609.438 274.504 591.938C314.81 573.797 360.307 551.849 390.182 520.808C398.062 512.624 405.923 504.126 413.527 495.918C439.56 467.796 466.48 438.712 499.32 416.137C536.228 390.759 576.732 376.591 623.135 372.808C681.939 368.017 734.322 386.861 783.276 430.405C825.877 468.301 860.323 519.96 890.71 565.543C934.306 630.942 971.973 687.431 1019.72 686.85C1039.45 686.613 1059.81 676.748 1081.99 656.703C1106.03 634.962 1131.67 601.766 1160.37 555.227C1186.2 513.357 1218.3 466.039 1260.6 432.606C1283.19 414.739 1307 402.443 1331.33 396.055C1359.06 388.772 1388.48 388.879 1418.77 396.368C1449.26 403.903 1457.75 428.854 1466.75 455.264C1474.55 478.174 1482.63 501.871 1506.27 513.533C1515.67 518.172 1527.16 520.877 1540.4 521.557C1576.32 523.414 1611.63 512.517 1628.31 494.428C1638.92 482.927 1644.91 467.972 1646.64 448.722C1647.84 435.319 1648.15 421.449 1648.44 408.037C1648.85 389.001 1649.29 369.316 1652.29 350.639L1653.86 350.792C1650.85 369.4 1650.43 389.055 1650.02 408.06C1649.72 421.487 1649.43 435.372 1648.21 448.806C1646.46 468.286 1640.37 483.439 1629.59 495.139C1621.01 504.439 1607.83 511.959 1591.46 516.888C1575.62 521.656 1557.92 523.689 1540.29 522.78C1526.78 522.084 1515.05 519.318 1505.41 514.565C1481.24 502.643 1473.09 478.717 1465.21 455.569C1456.33 429.495 1447.94 404.866 1418.28 397.53C1296.78 367.489 1220.43 460.659 1161.78 555.754C1133.01 602.4 1107.3 635.68 1083.17 657.506C1060.68 677.841 1039.93 687.836 1019.73 688.081C1019.48 688.081 1019.22 688.081 1018.98 688.081L1018.99 688.065Z" fill="#1B5AFF" fill-opacity="0.13"/>
<path d="M1051.42 660.295C1004.59 660.295 960.212 608.346 909.13 548.563C872.616 505.83 831.226 457.388 783.217 421.976C728.225 381.405 672.976 364.196 614.329 369.354C512.992 378.264 467.377 442.15 423.259 503.935C415.201 515.222 406.868 526.891 398.397 537.895C373.24 570.572 331.939 596.493 291.052 619.64C250.953 642.344 209.937 655.511 169.158 658.782C138.426 661.25 105.281 657.192 73.3276 647.067C41.8273 637.087 12.169 621.451 -12.4363 601.85C-23.8328 592.779 -33.6434 582.745 -41.6219 572.047L-40.2527 571.435C-32.3432 582.05 -22.6114 591.992 -11.3036 600.994C38.6655 640.801 107.753 662.473 169.001 657.567C208.933 654.365 250.815 640.908 290.136 618.654C330.885 595.584 372.039 569.762 397.058 537.269C405.519 526.28 413.842 514.618 421.899 503.339C466.215 441.287 512.037 377.126 614.181 368.139C673.321 362.935 728.973 380.259 784.33 421.089C832.467 456.601 873.906 505.096 910.469 547.883C963.384 609.813 1009.09 663.306 1057.14 658.797C1077.37 656.902 1097 644.965 1117.15 622.315C1138.98 597.777 1161.01 561.188 1184.51 510.453C1205.17 465.825 1231.5 415.159 1270.03 377.783C1290.62 357.815 1313.18 343.402 1337.05 334.958C1364.27 325.337 1394.17 323.083 1425.96 328.264C1457.94 333.476 1469.9 358.151 1482.56 384.263C1493.54 406.937 1504.91 430.382 1530.52 440.332C1540.61 444.252 1552.62 446.071 1566.17 445.719C1602.42 444.787 1635.81 430.802 1651.26 410.085C1660.85 397.216 1665.51 380.893 1664.74 362.897C1664.15 349.218 1662.6 335.141 1661.08 321.531C1658.93 302.205 1656.72 282.222 1657.26 263.056L1658.83 263.086C1658.29 282.191 1660.51 302.136 1662.64 321.432C1664.16 335.057 1665.72 349.149 1666.31 362.866C1667.09 381.1 1662.36 397.644 1652.62 410.712C1636.91 431.788 1602.99 446.017 1566.22 446.957C1552.38 447.309 1540.14 445.459 1529.81 441.44C1503.65 431.276 1492.17 407.602 1481.08 384.707C1468.58 358.915 1456.77 334.553 1425.63 329.471C1298.12 308.678 1232.93 409.504 1185.98 510.881C1140.7 608.651 1099.82 656.046 1057.31 660.027C1055.35 660.211 1053.39 660.303 1051.44 660.303L1051.42 660.295Z" fill="#1B5AFF" fill-opacity="0.13"/>
<path d="M147.272 697.312C92.8405 697.312 36.9811 681.111 -8.09248 651.4C-21.0255 642.871 -32.3826 633.35 -41.8287 623.102L-40.5482 622.391C-31.171 632.563 -19.9125 642.008 -7.07793 650.468C48.7617 687.278 121.248 703.219 186.839 693.109C229.007 686.606 270.121 670.099 305.738 645.363C343.937 618.838 382.263 589.378 403.903 553.729C411.035 541.984 417.959 529.573 424.657 517.576C462.255 450.235 501.133 380.611 605.109 363.493C665.125 353.612 724.452 367.107 786.468 404.759C840.396 437.497 889.115 484.089 932.1 525.187C994.312 584.686 1048.04 636.07 1096.79 627.748C1117.32 624.248 1135.96 610.485 1153.74 585.687C1173.01 558.834 1190.95 519.585 1208.59 465.71C1218.72 434.768 1234.84 389.062 1257.85 349.485C1283.23 305.812 1312.76 276.834 1345.61 263.346C1372.29 252.395 1401.78 251.348 1433.28 260.236C1463.36 268.718 1479.35 291.751 1494.79 314.027C1509.97 335.898 1525.66 358.518 1554.69 367.184C1565.45 370.393 1577.95 371.318 1591.88 369.935C1628.53 366.29 1660.05 349.371 1674.14 325.78C1682.75 311.368 1685.73 294.533 1682.78 277.102C1680.4 263.109 1676.97 248.796 1673.65 234.949C1668.95 215.371 1664.09 195.127 1662.16 175.495L1663.74 175.404C1665.66 194.967 1670.52 215.179 1675.2 234.727C1678.53 248.582 1681.97 262.918 1684.34 276.941C1687.35 294.601 1684.31 311.673 1675.58 326.3C1661.27 350.265 1629.27 367.451 1592.09 371.15C1577.91 372.564 1565.13 371.616 1554.13 368.33C1524.56 359.504 1508.73 336.685 1493.41 314.615C1478.1 292.546 1462.27 269.727 1432.75 261.397C1401.68 252.632 1372.62 253.656 1346.35 264.439C1313.82 277.797 1284.52 306.584 1259.29 349.997C1236.34 389.49 1220.23 435.128 1210.12 466.024C1176.13 569.831 1140.23 621.604 1097.13 628.963C1093.51 629.582 1089.87 629.88 1086.2 629.88C1039.51 629.88 988.856 581.439 930.869 525.974C887.942 484.922 839.283 438.391 785.492 405.737C723.871 368.33 664.968 354.903 605.434 364.708C502.256 381.696 463.545 451.03 426.105 518.08C419.397 530.085 412.463 542.503 405.322 554.272C383.563 590.127 345.099 619.694 306.782 646.303C270.948 671.185 229.578 687.79 187.135 694.339C174.054 696.357 160.697 697.343 147.262 697.343L147.272 697.312Z" fill="#1B5AFF" fill-opacity="0.13"/>
<path d="M140.051 736.897C126.232 736.897 112.353 735.98 98.6322 734.131C62.2168 729.232 26.8159 717.762 -3.74867 700.95C-18.2774 692.964 -31.1514 683.946 -42.0356 674.15L-40.8438 673.347C-30.0482 683.068 -17.2629 692.016 -2.84247 699.941C58.0404 733.42 135.619 744.157 204.687 728.651C248.569 718.801 288.914 699.238 321.37 672.071C355.313 643.659 392.487 609.331 410.779 570.174C416.59 557.733 422.136 544.658 427.504 532.003C458.335 459.306 490.209 384.133 596.077 358.824C656.98 344.266 719.96 353.94 788.635 388.405C848.355 418.377 904.352 463.051 953.76 502.468C1025.28 559.529 1087.04 608.812 1136.5 596.676C1157.33 591.564 1174.95 575.982 1190.39 549.029C1207.09 519.853 1220.94 477.952 1232.72 420.937C1239.49 388.199 1250.68 339.742 1269.73 297.131C1290.75 250.118 1317.81 218.007 1350.16 201.684C1376.43 188.433 1406.82 185.216 1440.47 192.132C1472.59 198.734 1491.88 221.4 1510.53 243.317C1528.86 264.867 1547.82 287.151 1578.92 293.99C1590.3 296.497 1603.33 296.527 1617.65 294.097C1654.26 287.877 1684.71 267.687 1697.09 241.422C1704.55 225.603 1705.86 208.256 1700.87 191.245C1696.69 176.817 1691.33 162.145 1686.15 147.962C1678.95 128.246 1671.49 107.857 1667.13 87.8814L1668.68 87.6751C1673.04 107.59 1680.47 127.94 1687.66 147.625C1692.85 161.824 1698.22 176.512 1702.41 190.97C1707.46 208.21 1706.13 225.802 1698.57 241.834C1686 268.489 1655.12 288.977 1617.98 295.289C1603.4 297.765 1590.11 297.727 1578.48 295.167C1546.82 288.197 1527.7 265.723 1509.2 243.989C1490.71 222.256 1471.59 199.789 1440.05 193.308C1406.86 186.484 1376.91 189.648 1351.02 202.708C1318.96 218.878 1292.11 250.783 1271.22 297.528C1252.2 340.047 1241.04 388.428 1234.28 421.12C1211.59 530.964 1180.67 587.116 1136.97 597.838C1086.6 610.195 1024.51 560.668 952.627 503.316C903.279 463.945 847.35 419.324 787.778 389.429C719.527 355.178 656.97 345.55 596.55 359.993C491.46 385.119 459.714 459.986 429.011 532.385C423.643 545.04 418.087 558.131 412.276 570.587C393.886 609.943 356.594 644.392 322.542 672.896C289.89 700.224 249.298 719.909 205.14 729.821C184.239 734.513 162.234 736.882 140.061 736.882L140.051 736.897Z" fill="#1B5AFF" fill-opacity="0.13"/>
<path d="M131.413 778.339C85.5613 778.339 40.399 768.855 0.585339 750.499C-15.5785 743.049 -29.9891 734.536 -42.2425 725.205L-41.1393 724.334C-28.9745 733.596 -14.6625 742.047 1.39304 749.452C112.403 800.63 256.685 778.858 337.012 698.802C372.728 663.206 400.614 624.432 417.664 586.65C418.915 581.546 420.156 576.387 421.407 571.183C442.151 484.853 465.663 387.007 587.084 354.193C647.277 332.872 709.263 336.662 776.499 365.801C835.215 391.248 888.543 431.261 940.108 469.951C1013.46 524.988 1076.81 572.521 1133.17 559.636C1157.37 554.104 1178.72 537.773 1198.45 509.727C1219.93 479.198 1239.02 435.525 1256.83 376.193C1251.15 318.497 1263.4 262.544 1291.33 218.626C1307.08 193.851 1327.55 173.348 1352.17 157.69C1379.19 140.503 1411.22 129.193 1447.36 124.081L1447.45 124.066H1447.55C1483.42 125.663 1506.58 149.345 1528.98 172.248C1549.77 193.515 1571.28 215.5 1603.15 220.865C1615.66 222.546 1629.21 221.69 1643.41 218.32C1672.65 211.381 1696.66 195.884 1711 174.693C1725.57 153.166 1728.4 128.574 1718.96 105.435C1712.96 90.7394 1705.73 75.876 1698.73 61.5017C1688.98 41.4877 1678.9 20.7935 1672.07 0.313316L1673.6 0.00764179C1680.4 20.4267 1690.47 41.0903 1700.19 61.0737C1707.2 75.4634 1714.45 90.3344 1720.45 105.068C1730.02 128.521 1727.15 153.449 1712.39 175.266C1697.84 196.747 1673.5 212.451 1643.86 219.49C1629.43 222.913 1615.62 223.784 1602.85 222.065C1570.37 216.601 1548.69 194.432 1527.72 172.989C1504.54 149.284 1482.65 126.893 1447.55 125.296C1301.82 145.975 1247.56 266.197 1258.42 376.201V376.293L1258.4 376.385C1240.54 435.869 1221.39 479.68 1199.84 510.316C1179.91 538.667 1158.25 555.189 1133.62 560.813C1107.41 566.812 1078.28 560.553 1041.98 541.128C1009.65 523.834 975.341 498.089 939.015 470.83C887.519 432.193 834.27 392.234 775.731 366.863C708.968 337.931 647.454 334.156 587.675 355.324C467.052 387.916 443.629 485.396 422.963 571.405C421.712 576.624 420.461 581.805 419.21 586.925L419.181 587.017C402.081 624.936 374.097 663.848 338.263 699.559C299.247 738.441 243.565 765.08 181.49 774.556C164.864 777.093 148.099 778.346 131.423 778.346L131.413 778.339Z" fill="#1B5AFF" fill-opacity="0.13"/>
</g>
<defs>
<clipPath id="clip0_7_14">
<rect width="1773" height="1086" fill="white" transform="translate(-47)"/>
</clipPath>
</defs>
</svg>
