<svg width="1068" height="822" viewBox="0 0 1068 822" fill="none" xmlns="http://www.w3.org/2000/svg">
<g clip-path="url(#clip0_7_29)">
<path d="M568.846 739.552C549.605 742.065 531.324 742.545 514.248 740.969C487.198 738.474 462.978 730.787 442.265 718.117C419.516 704.202 404.63 683.252 399.224 657.531C394.329 634.229 397.165 608.153 407.436 582.136L407.484 582.017L407.614 582C467.505 572.808 517.47 540.308 541.262 495.054C562.314 455.015 561.59 407.563 539.221 361.45L536.611 356.282L536.996 356.051C536.996 356.051 536.943 355.997 536.878 355.997C536.818 355.997 536.777 356.027 536.765 356.045L536.949 355.666L537.168 356.015C590.076 444.709 697.161 475.343 797.404 462.251C829.444 458.067 860.76 449.421 889.418 436.78L889.65 436.679L889.721 436.922C896.693 460.159 896.378 484.665 888.772 509.745C882.109 531.726 869.827 554.324 852.258 576.903C812.974 627.402 758.808 663.339 737.341 676.448C710.576 692.793 656.25 722.182 593.09 735.422C584.855 737.146 576.756 738.533 568.829 739.564L568.846 739.552ZM407.816 582.426C390.307 626.898 390.229 685.759 442.502 717.737C481.911 741.846 532.552 747.642 593.013 734.971C656.108 721.75 710.386 692.384 737.122 676.051C758.565 662.96 812.677 627.058 851.914 576.619C889.798 527.922 902.401 481.044 889.371 437.29C829.759 463.537 759.342 471.988 696.146 460.473C662.368 454.316 631.847 442.783 605.437 426.189C577.895 408.884 555.443 386.406 538.658 359.334L539.625 361.254C551.224 385.167 557.104 409.175 557.098 432.62C557.098 454.713 551.901 475.793 541.66 495.273C529.93 517.58 511.56 537.315 488.533 552.356C465.399 567.462 437.482 577.863 407.81 582.438L407.816 582.426Z" fill="white" fill-opacity="0.35"/>
<path d="M534.22 351.801C533.65 351.879 532.932 351.76 532.066 351.452L531.989 351.422L529.028 346.231C517.025 325.85 502.102 306.844 484.908 289.521C456.309 304.438 416.449 321.832 372.334 331.112C344.875 336.891 319.077 338.74 295.658 336.618C269.356 334.236 245.818 326.798 225.704 314.507C203.537 300.965 189.066 280.602 183.856 255.616C179.133 232.978 181.958 207.631 192.026 182.319L192.08 182.189L192.216 182.177C254.558 176.778 322.512 189.65 383.56 218.422C414.396 232.954 442.431 251.012 466.888 272.092C473.213 277.544 479.259 283.162 485.014 288.946C495.92 283.251 505.17 277.923 512.379 273.556C512.616 273.413 512.859 273.265 513.091 273.123C513.073 272.85 513.055 272.584 513.038 272.317C511.993 255.35 513.239 237.932 516.74 220.55C523.445 187.25 538.349 154.435 559.852 125.663C585.685 91.0884 621.167 61.421 662.451 39.8786L662.694 39.7542L662.771 40.0149C669.559 62.7307 669.173 86.6851 661.62 111.214C655.004 132.703 642.871 154.791 625.545 176.861C587.37 225.499 535.252 260.15 513.577 273.36C514.74 290.612 518.253 307.531 524.186 323.722C524.56 324.736 525.753 326.94 527.266 329.732C532.671 339.7 537.352 348.85 535.288 351.256C535.026 351.559 534.665 351.742 534.208 351.801H534.22ZM532.297 351.055C533.614 351.511 534.51 351.481 534.955 350.966C536.99 348.601 530.66 336.926 526.88 329.951C525.361 327.142 524.157 324.925 523.771 323.882C517.891 307.846 514.313 290.949 513.127 273.644C512.954 273.751 512.782 273.852 512.616 273.953C505.425 278.303 496.211 283.613 485.353 289.29C502.761 306.826 517.535 325.826 529.419 346L532.297 351.055ZM192.394 182.621C175.247 225.848 175.063 283.05 225.941 314.128C264.176 337.483 313.399 343.048 372.24 330.674C416.241 321.417 456.006 304.076 484.569 289.189C412.112 216.431 299.301 173.412 192.394 182.621ZM662.421 40.412C621.297 61.9188 585.964 91.4855 560.219 125.941C526.488 171.083 510.344 223.294 513.554 272.856C598.946 220.817 688.682 129.071 662.421 40.412Z" fill="white" fill-opacity="0.35"/>
<path d="M798.401 462.88C786.938 464.379 775.338 465.286 763.644 465.594C733.218 466.4 703.664 463.105 675.807 455.792C614.041 439.583 565.975 405.157 536.795 356.24C511.738 313.944 504.683 264.98 516.384 214.636C527.088 168.576 553.153 124.039 589.773 89.2275C609.775 70.2157 632.659 53.7108 657.781 40.1868C682.505 26.8761 708.974 16.6709 736.445 9.84965C792.978 -4.17808 850.579 -3.20615 903.03 12.6469C951.202 27.208 993.365 56.105 1021.76 94.0042C1036.38 113.526 1047 134.89 1053.33 157.505C1060.01 181.347 1061.77 206.173 1058.58 231.301C1052.1 282.273 1027.28 330.567 986.79 370.967C950.045 407.628 901.463 436.353 849.986 451.851C833.242 456.894 815.982 460.574 798.407 462.874L798.401 462.88ZM537.18 356.009C600.109 461.499 742.106 483.859 849.849 451.424C943.169 423.333 1043.76 344.358 1058.13 231.247C1070.46 134.155 1006.63 44.4419 902.899 13.0795C797.452 -18.8044 671.742 11.9298 590.088 89.5475C525.159 151.271 480.914 260.998 537.18 356.009Z" fill="white" fill-opacity="0.35"/>
<path d="M571.428 737.223C545.968 740.548 522.489 740.844 501.586 738.1C481.093 735.41 462.99 729.762 447.557 721.275C442.247 722.461 436.943 723.587 431.644 724.659C413.672 728.28 396.139 731.208 379.099 733.436C281.75 746.154 199.781 736.091 134.853 703.372C107.162 689.415 84.2889 671.251 66.8805 649.377C50.6113 628.936 39.0176 605.178 32.4257 578.752C26.2253 553.909 24.4572 526.831 27.1628 498.278C29.7438 471.064 36.3357 442.943 46.7487 414.704L46.9208 414.242L47.1581 414.668C95.3071 500.642 200.208 566.342 314.401 582.047C346.631 586.48 377.989 586.468 407.62 582L408 581.94L403.989 592.916C388.076 641.791 399.497 686.458 434.546 712.409C438.669 715.462 443.024 718.265 447.605 720.801C541.381 699.893 634.321 661.603 724.104 606.867C783.639 570.568 842.617 526.345 893.471 476.635C894.432 463.579 893.287 450.292 889.312 437.035L889.252 436.845L889.436 436.762C919.518 423.368 949.339 404.268 975.428 380.556C1032.01 298.369 1060.61 207.435 1036.54 115.784L1036.07 113.994L1036.96 115.618C1050.27 139.957 1058.18 167.302 1059.83 194.699C1062.88 245.393 1046.52 295.969 1012.49 340.962C1001.75 355.168 989.383 368.609 975.731 381.013C970.658 388.343 965.312 395.663 959.699 402.976C940.641 427.819 918.599 452.455 893.845 476.623C892.913 488.967 890.059 501.762 885.289 514.931C877.131 537.463 863.62 560.599 845.144 583.7C813.413 623.366 771.505 658.509 723.944 685.326C676.631 712.001 624.881 729.809 574.281 736.832C573.332 736.962 572.377 737.093 571.433 737.217L571.428 737.223ZM448.198 721.133C479.259 738.148 520.555 743.41 571.267 736.791C572.246 736.66 573.225 736.53 574.216 736.394C677.047 722.135 780.72 663.523 844.788 583.434C866.931 555.758 890.326 517.55 893.441 477.032C878.845 491.255 863.312 505.318 846.888 519.162C809.307 550.833 766.931 581.3 724.341 607.264C678.483 635.224 630.951 659.256 583.075 678.688C538.403 696.823 493.113 711.064 448.198 721.133ZM47.0098 415.314C10.5317 514.646 14.5367 642.223 135.06 702.963C211.256 741.366 311.014 748.513 431.555 724.209C436.699 723.172 441.832 722.087 446.97 720.943C442.508 718.46 438.278 715.734 434.279 712.771C416.158 699.354 403.995 680.531 399.112 658.343C394.65 638.075 396.187 615.401 403.556 592.774L407.306 582.497C377.752 586.913 346.471 586.907 314.336 582.491C260.456 575.084 207.471 556.469 161.108 528.662C111.398 498.853 71.9535 459.661 46.9979 415.308L47.0098 415.314ZM889.798 437.1C893.501 449.527 894.859 462.613 893.869 476.243C923.998 446.748 951.268 415.332 974.081 382.5C949.387 404.623 920.616 423.351 889.798 437.1ZM1037.44 117.473C1049.71 165.524 1048.21 215.501 1032.99 266.053C1021.76 303.353 1003 341.252 977.096 379.033C1027.71 332.363 1063.79 268.204 1059.37 194.735C1057.77 168.013 1050.19 141.338 1037.44 117.473Z" fill="white" fill-opacity="0.35"/>
<path d="M381.507 734.011C317.819 742.332 258.367 740.204 204.445 727.652C153.881 715.882 85.7426 688.419 48.2973 624.45C19.0816 574.532 15.9428 513.052 38.715 436.495V436.483L46.719 414.793C33.0842 390.192 25.098 365.58 22.9857 341.638C19.1112 297.753 35.0007 258.894 68.9453 229.256C83.9863 216.123 102.053 205.23 122.642 196.898C142.323 188.927 163.333 183.658 185.084 181.24L185.458 181.199L185.322 181.549C167.64 226.002 167.379 284.845 219.699 316.688C259.168 340.713 309.91 346.385 370.501 333.56C433.596 320.202 487.993 290.76 514.8 274.403C536.29 261.288 590.521 225.35 629.889 175.024C668.081 126.208 680.808 79.2356 667.714 35.4219L667.66 35.2382L667.832 35.1552C681.781 28.3043 696.146 22.3839 710.54 17.5598C763.774 -0.278561 822.591 -4.39739 876.163 5.95599C935.396 17.4057 984.488 45.6094 1018.13 87.5207C1037.54 111.706 1048 140.775 1049.2 173.909C1050.24 202.741 1044.31 234.88 1031.58 269.437C1003.71 345.087 951.677 410.419 930.602 435.002C846.081 533.575 731.141 615.573 598.199 672.128C531.372 700.557 466.384 720.203 405.039 730.515C397.136 731.842 389.286 733.016 381.507 734.035V734.011ZM39.1481 436.632C16.4234 513.058 19.5384 574.426 48.6889 624.225C86.0511 688.052 154.065 715.462 204.546 727.214C262.995 740.82 323.284 741.004 381.098 733.454C462.23 722.858 538.486 697.031 598.027 671.701C730.904 615.17 845.785 533.214 930.263 434.7C951.321 410.141 1003.31 344.856 1031.16 269.277C1058.78 194.332 1054.28 133.272 1017.77 87.8051C942.706 -5.71898 805.966 -13.9448 710.683 17.9806C696.372 22.775 682.078 28.6599 668.206 35.4693C675.095 58.6592 674.697 83.1055 667.031 108.133C660.297 130.108 647.92 152.705 630.25 175.296C590.829 225.682 536.545 261.655 515.037 274.788C488.207 291.163 433.762 320.635 370.596 334.005C342.318 339.99 315.736 341.928 291.594 339.765C264.484 337.341 240.217 329.702 219.468 317.073C196.708 303.217 181.851 282.315 176.505 256.63C171.687 233.481 174.547 207.589 184.77 181.732C101.021 191.167 14.9223 245.174 23.4426 341.602C25.5548 365.509 33.5411 390.092 47.17 414.668L47.2174 414.757L47.1818 414.852L39.1481 436.632Z" fill="white" fill-opacity="0.35"/>
<path d="M536.931 356.442C536.83 356.454 536.735 356.418 536.658 356.335L536.581 356.246L536.593 356.205C524.21 332.547 507.947 310.56 488.711 290.724C442.965 314.625 393.772 330.342 345.783 336.286C303.668 341.513 245.248 340.749 206.076 307.419C188.282 292.277 177.769 272.471 174.826 248.558C172.251 227.644 175.739 204.418 184.9 181.377L184.954 181.252L185.09 181.234C217.706 177.702 251.929 179.178 286.823 185.632C290.33 186.278 293.825 186.977 297.313 187.718C260.479 179.984 222.506 177.655 185.274 181.673C165.309 231.97 173.194 278.842 206.367 307.075C245.409 340.298 303.698 341.057 345.723 335.842C394.27 329.821 443.214 313.867 488.301 290.309C459.691 260.915 424.524 236.213 385.732 217.676C386.118 217.859 386.509 218.043 386.895 218.233C419.51 233.843 448.833 253.293 474.05 276.039C479.129 280.62 484.012 285.313 488.693 290.108C496.258 286.149 503.716 281.971 511.044 277.591C508.908 253.756 511.447 229.268 518.739 204.697C539.269 135.501 596.401 70.5417 667.838 35.1553L668.081 35.0367L668.159 35.2916C675.385 59.4712 673.688 86.0925 663.109 114.403C654.625 137.119 640.681 160.468 621.671 183.801C592.182 219.999 554.328 252.321 511.536 277.941C514.028 305.102 522.614 331.403 537.192 356.009L537.251 356.11L537.204 356.217C537.127 356.388 537.014 356.43 536.949 356.442C536.949 356.442 536.937 356.442 536.931 356.442ZM489.102 290.517C504.755 306.607 518.158 323.859 529.158 342.076C519.184 321.642 513.15 300.201 511.103 278.196C506.778 280.78 502.399 283.299 497.973 285.74C495.03 287.364 492.075 288.964 489.102 290.517ZM667.791 35.6709C596.573 71.0276 539.637 135.815 519.167 204.816C511.916 229.256 509.371 253.607 511.471 277.325C553.622 252.072 591.494 220.106 621.309 183.51C651.521 146.429 684.078 90.6973 667.791 35.6709Z" fill="white" fill-opacity="0.35"/>
<path d="M399.913 584.358C375.788 587.511 350.168 587.529 323.693 584.412C273.337 578.479 219.901 560.896 173.236 534.891C94.2806 490.893 7.8735 404.629 24.1842 306.305C27.946 283.63 37.018 263.303 51.1512 245.885C63.9435 230.121 80.8476 216.745 101.395 206.137C120.037 196.507 141.273 189.33 164.514 184.802C185.684 180.677 208.379 178.882 230.148 179.617C288.9 181.596 350.713 198.593 404.202 227.478C461.649 258.503 506.618 301.172 534.243 350.877C545.487 371.287 552.613 392.575 555.425 414.153C558.226 435.624 556.636 456.443 550.696 476.024C539.702 512.276 514.705 541.404 478.399 560.268C455.781 572.02 430.564 579.961 403.443 583.872C402.274 584.044 401.087 584.204 399.913 584.358ZM181.121 182.39C106.189 192.181 37.113 231.152 24.6292 306.382C8.3541 404.469 94.6307 490.573 173.455 534.5C255.922 580.459 379.282 611.258 478.185 559.871C514.378 541.066 539.304 512.027 550.257 475.9C562.237 436.389 556.41 392.071 533.846 351.102C479.366 253.086 357.311 184.352 230.13 180.073C213.867 179.528 197.355 180.274 181.121 182.396V182.39Z" fill="white" fill-opacity="0.35"/>
<path d="M788.878 462.666C785.14 463.152 781.408 463.579 777.664 463.94C727.872 468.747 680.114 461.985 639.56 444.383C617.921 434.996 598.305 422.527 581.253 407.338C563.251 391.301 547.955 372.07 535.798 350.189C521.932 325.062 514.242 298.014 512.954 269.804C511.756 243.58 516.064 216.793 525.765 190.177C534.961 164.955 548.638 140.781 566.42 118.32C583.816 96.351 604.233 77.1436 627.106 61.2313C649.403 45.716 673.955 32.9032 700.074 23.1366C726.181 13.3758 753.308 6.86866 780.69 3.80472C838.261 -2.64317 893.987 6.40048 941.84 29.9519C964.125 40.9216 984.002 55.2634 1000.92 72.5862C1017.57 89.6246 1030.87 109.051 1040.47 130.315C1050.17 151.816 1055.79 174.555 1057.16 197.905C1058.58 222.109 1055.39 246.407 1047.68 270.118C1039.11 296.467 1025.45 321.53 1007.07 344.613C989.603 366.546 968.172 386.364 943.37 403.497C898.224 434.688 843.756 455.495 788.878 462.666ZM536.195 349.964C582.06 432.489 670.051 473.867 777.623 463.49C903.267 451.365 1014.13 371.791 1047.25 269.976C1078.22 174.739 1034.79 76.2013 941.644 30.3549C847.286 -16.0842 720.983 -3.53212 627.367 61.5987C539.69 122.599 477.93 244.392 536.195 349.964Z" fill="white" fill-opacity="0.35"/>
<path d="M376.767 726.734C280.172 739.357 199.034 729.555 135.025 697.445C107.233 683.507 84.2593 665.419 66.7322 643.675C50.3206 623.318 38.5904 599.666 31.8739 573.377C30.9008 569.56 30.0286 565.696 29.2691 561.785C40.8747 620.551 76.8485 667.76 135.233 697.042C210.544 734.817 309.637 741.674 429.745 717.417C528.767 697.422 627.106 657.822 722.016 599.72C904.359 488.102 1081.46 301.273 1031.68 111.635C1017.49 87.74 998.337 67.0451 974.74 50.1194C891.786 -9.36367 766.462 -13.3462 662.83 40.1986C669.808 63.7085 668.135 89.5772 657.852 117.087C649.587 139.211 636.006 161.956 617.488 184.69C586.368 222.891 545.564 256.737 499.486 282.564C453.58 308.296 403.413 325.542 354.422 332.422C325.414 336.494 294.81 334.994 268.222 328.191C239.101 320.741 215.789 307.348 200.802 289.456C190.792 277.508 184.515 263.623 182.147 248.185C179.572 231.425 181.613 212.745 188.211 192.672L191.896 182.657C161.476 185.407 134.105 192.441 110.538 203.559C72.5587 221.475 45.9774 250.247 33.6717 286.76C20.6895 325.287 25.1692 368.798 46.2859 409.287L46.3334 409.376L46.2978 409.471C30.7762 451.56 23.9113 491.397 25.3294 527.761C23.8045 490.633 30.6991 450.476 45.835 409.406C24.7005 368.834 20.2267 325.228 33.2385 286.617C39.2134 268.88 48.6889 252.79 61.3922 238.791C74.6176 224.224 91.0826 212.235 110.336 203.15C134.046 191.967 161.588 184.909 192.204 182.177L192.56 182.147L188.627 192.821C175.882 231.626 180.089 264.044 201.134 289.166C234.005 328.404 300.328 339.036 352.292 332.25C352.98 332.161 353.662 332.067 354.345 331.972C453.639 318.021 554.334 261.472 617.12 184.399C646.597 148.219 678.364 93.8204 662.326 40.1393L662.273 39.9616L662.439 39.8727C686.445 27.451 712.19 17.874 738.949 11.4083C766.1 4.84778 793.613 1.65939 820.716 1.93793C878.851 2.53057 932.192 19.0592 974.983 49.746C998.639 66.7073 1017.85 87.4614 1032.06 111.422L1032.09 111.481C1044.77 159.751 1043.46 210.007 1028.22 260.849C1014.75 305.748 990.327 351.523 955.617 396.907C925.511 436.27 887.888 475.129 843.797 512.4C806.542 543.899 764.504 574.224 722.229 600.099C676.394 628.154 628.927 652.257 581.134 671.743C530.98 692.189 480.066 707.704 429.811 717.856C411.643 721.524 393.944 724.482 376.749 726.734H376.767Z" fill="white" fill-opacity="0.35"/>
<path d="M566.354 742.954C547.409 745.431 529.342 745.982 512.409 744.584C484.753 742.308 459.845 734.817 438.384 722.306C435.821 720.813 433.353 719.237 430.98 717.583C423.646 719.059 416.324 720.428 409.008 721.69C354.807 731.042 304.594 733.97 259.767 730.396C204.789 726.01 157.02 711.758 117.789 688.028C95.0757 674.291 76.1543 657.371 61.5583 637.737C47.8227 619.259 37.7538 598.185 31.6306 575.095C20.3454 532.52 22.4992 482.703 37.8725 431.031V431.019L46.0545 408.843L46.2919 409.293C59.2087 433.811 77.0799 457.089 99.4011 478.484C178.439 554.246 296.643 594.617 400.53 581.318L400.909 581.271L400.767 581.626C379.015 636.712 391.007 688.84 431.098 717.097C606.832 681.687 777.575 587.031 899.754 458.061C899.078 449.438 897.476 440.922 894.954 432.519L894.901 432.335L895.079 432.252C914.57 423.084 932.756 412.328 949.44 400.113C1006.6 325.548 1060.35 220.787 1031.68 111.605L1031.27 110.017L1032.1 111.434C1057.06 153.955 1063.8 203.061 1051.58 253.447C1040.4 299.525 1013.78 343.866 976.615 378.31C968.178 386.127 959.23 393.505 949.796 400.415C944.326 407.545 938.612 414.668 932.667 421.792C922.313 434.184 911.479 446.357 900.193 458.281C901.368 474.098 899.464 490.354 894.486 506.865C887.704 529.362 875.19 552.492 857.284 575.611C817.192 627.384 761.947 664.175 740.053 677.586C712.688 694.352 657.188 724.547 592.9 738.355C583.888 740.293 575.035 741.828 566.366 742.96L566.354 742.954ZM431.603 717.459C433.851 719.023 436.183 720.511 438.604 721.921C524.851 772.183 650.738 731.777 739.798 677.201C761.668 663.801 816.86 627.046 856.904 575.332C888.167 534.968 902.519 495.848 899.79 458.684C876.419 483.337 851.131 506.912 824.223 529.101C784.844 561.577 741.981 591.12 696.817 616.906C651.818 642.597 604.577 664.542 556.41 682.132C515.197 697.179 473.32 709.031 431.603 717.459ZM38.2997 431.161C4.9306 543.342 33.9861 636.83 118.02 687.643C183.304 727.125 270.542 739.985 377.633 725.999C387.892 724.659 398.311 723.077 408.931 721.246C416.111 720.007 423.302 718.662 430.469 717.228C410.711 703.271 397.575 683.69 392.265 660.109C386.83 635.977 389.577 608.917 400.209 581.822C348.293 588.4 292.448 582.006 238.692 563.326C185.909 544.983 137.63 515.76 99.0867 478.81C76.8663 457.51 59.0545 434.35 46.1317 409.951L38.3056 431.167L38.2997 431.161ZM895.441 432.578C897.891 440.792 899.458 449.166 900.128 457.664C911.265 445.889 922.004 433.828 932.305 421.502C937.668 415.077 943.08 408.363 948.455 401.381C932.144 413.205 914.41 423.641 895.441 432.578ZM1032.52 113.087C1045.73 164.818 1041.62 220.005 1020.31 277.147C1005.31 317.334 981.973 358.261 950.769 399.129C959.729 392.498 968.243 385.44 976.288 377.984C1042.01 317.073 1087.4 208.401 1032.52 113.087Z" fill="white" fill-opacity="0.35"/>
<path d="M569.369 740.631C567.743 740.844 566.129 741.046 564.503 741.235C521.647 746.267 462.189 745.117 422.329 711.076C404.066 695.478 393.244 675.115 390.164 650.556C387.47 629.049 390.989 605.154 400.34 581.46L400.387 581.336L400.518 581.318C463.999 573.015 514.42 543.733 538.853 500.98C563.21 458.37 560.783 404.048 532.22 351.867C532.119 351.772 532.012 351.671 531.911 351.559L531.828 351.47L531.858 351.351C531.876 351.286 531.894 351.221 531.923 351.156L532.101 350.711L532.333 351.132C532.416 351.28 532.499 351.434 532.582 351.582C533.033 351.962 533.472 352.122 533.899 352.05C534.593 351.932 535.258 351.203 535.786 349.988L535.97 349.567L536.195 349.97C604.257 472.445 775.475 488.043 895.073 432.252L895.31 432.139L895.387 432.388C902.84 457.22 901.167 484.546 890.409 513.609C881.77 536.941 867.53 560.943 848.081 584.951C781.195 667.523 674.78 726.858 569.369 740.631ZM400.72 581.751C380.362 633.417 388.55 681.628 422.625 710.732C462.361 744.667 521.682 745.805 564.45 740.785C671.333 728.245 779.883 668.424 847.725 584.667C878.596 546.554 911.841 489.287 895.026 432.768C865.834 446.351 832.69 455.928 799.143 460.473C798.597 460.55 798.039 460.622 797.493 460.693C763.222 465.173 729.533 464.515 697.339 458.749C662.629 452.532 631.431 440.626 604.624 423.362C575.664 404.712 552.583 380.224 536.023 350.575C535.454 351.707 534.759 352.365 533.982 352.495C533.656 352.548 533.341 352.513 533.027 352.382C545.92 376.165 553.687 401.476 555.508 425.668C557.585 453.291 552.12 478.703 539.257 501.205C526.055 524.3 506.007 543.188 479.657 557.334C456.997 569.501 429.704 577.946 400.72 581.751Z" fill="white" fill-opacity="0.35"/>
<path d="M398.483 582.308C361.56 587.132 321.996 584.963 281.94 575.771C229.863 563.818 179.293 540.817 135.701 509.265C117.717 496.245 100.303 480.712 85.345 464.343C68.6902 446.114 55.0969 427.049 44.945 407.669C33.6538 386.115 26.872 364.573 24.7776 343.635C22.4576 320.392 25.9464 297.86 35.149 276.661C44.3932 255.373 58.556 237.209 77.252 222.666C94.0908 209.568 114.626 199.369 138.288 192.346C159.553 186.041 182.996 182.372 207.963 181.454C230.356 180.63 253.881 182.112 276.007 185.733C328.997 194.415 380.665 213.847 425.426 241.938C474.008 272.424 511.934 311.958 535.104 356.276C557.739 399.983 560.831 446.232 543.808 486.502C535.323 506.575 522.305 524.241 505.111 539.016C487.411 554.223 466.04 565.69 441.588 573.104C427.74 577.3 413.328 580.37 398.483 582.308ZM180.094 184.263C117.005 192.506 59.8258 220.959 35.5644 276.845C-0.806953 360.626 59.7842 453.765 135.968 508.904C209.583 562.182 328.487 606.908 441.458 572.677C489.856 558.01 526.061 527.341 543.392 486.33C560.356 446.185 557.271 400.078 534.7 356.489C480.772 253.347 365.665 200.886 275.93 186.189C244.762 181.08 211.684 180.138 180.089 184.269L180.094 184.263Z" fill="white" fill-opacity="0.35"/>
<path d="M536.942 356.446L536.652 356.34L536.605 356.216V356.127L536.847 356.186L536.823 356.174H536.853L536.859 356.145L536.847 356.115L536.758 356.104H536.847L536.835 356.086L536.77 356.056L536.829 356.08L536.794 356.009L536.841 355.991H536.859V356.015L536.883 356.08L536.912 356.098L536.971 356.027L536.918 356.104L536.965 356.121L537.025 356.098L536.977 356.121L537.202 356.086L537.184 356.227L537.06 356.381L536.936 356.44L536.942 356.446ZM536.871 356.21H536.889L536.877 356.204L536.871 356.21Z" fill="white" fill-opacity="0.35"/>
<path d="M533.448 352.702H532.884L532.487 352.607L532.232 352.471L532.024 352.276L531.888 352.033L531.84 351.849L531.828 351.558L531.929 351.161L532.35 351.315L532.279 351.724L532.356 351.961L532.546 352.133L532.861 352.246L533.3 352.264L533.395 352.252L534.006 352.104L534.653 351.795L535.204 351.381L535.596 350.918L535.792 350.474L535.804 350.231L535.78 350.13L536.219 350.018L536.255 350.184L536.249 350.474L536.136 350.871L535.916 351.256L535.513 351.713L535.003 352.11L534.303 352.477L533.573 352.684L533.448 352.702Z" fill="white" fill-opacity="0.35"/>
<path d="M590.177 531.738C586.457 532.224 582.784 532.455 579.182 532.425C565.061 532.313 553.111 526.938 547.208 518.054C542.348 510.741 541.963 501.602 546.08 491.628L546.502 491.8C542.443 501.632 542.817 510.622 547.587 517.805C553.402 526.564 565.221 531.862 579.188 531.975C607.971 532.206 641.037 515.346 659.597 490.965C669.79 477.577 673.416 465.238 670.378 454.292L670.817 454.174C673.896 465.262 670.241 477.737 659.959 491.243C651.16 502.805 638.409 513.277 624.062 520.733C612.848 526.558 601.32 530.292 590.183 531.75L590.177 531.738Z" fill="white" fill-opacity="0.35"/>
<path d="M446.288 268.892C442.876 269.336 439.494 269.561 436.165 269.555C422.542 269.514 411.014 264.393 405.324 255.853C400.672 248.866 400.316 240.137 404.291 230.595L404.707 230.767C400.797 240.16 401.141 248.748 405.704 255.605C411.305 264.02 422.697 269.069 436.171 269.105C463.714 269.182 495.303 253.021 512.99 229.801C522.75 216.982 526.239 205.189 523.362 194.741L523.801 194.622C526.72 205.213 523.201 217.136 513.352 230.074C497.724 250.597 471.273 265.632 446.293 268.897L446.288 268.892Z" fill="white" fill-opacity="0.35"/>
<path d="M578.452 711.953C539.601 717.026 493.09 715.414 459.062 689.96C442.004 677.201 431.217 659.12 427.876 637.672C424.886 618.512 427.716 597.23 436.064 576.127L436.486 576.293C422.293 612.195 420.839 660.809 459.341 689.599C493.25 714.958 539.643 716.564 578.399 711.503C586 710.513 593.298 709.263 600.157 707.888C676.519 692.568 750.768 651.107 803.866 594.137C831.236 564.772 874.585 506.912 857.402 449.273L857.835 449.142C875.084 506.995 831.634 565.009 804.198 594.445C751.035 651.48 676.703 692.989 600.246 708.326C593.381 709.701 586.065 710.958 578.458 711.947L578.452 711.953Z" fill="white" fill-opacity="0.35"/>
<path d="M363.215 312.367C360.563 312.711 357.922 313.025 355.282 313.298C329.923 315.935 304.843 313.624 282.747 306.619C259.625 299.288 241.137 287.139 229.294 271.487C211.203 247.586 209.067 216.354 223.129 181.181L223.55 181.347C209.553 216.366 211.666 247.444 229.656 271.215C252.968 302.014 302.262 318.359 355.235 312.847C357.893 312.569 360.569 312.255 363.233 311.911C449.106 300.692 536.071 252.76 591.868 185.478C618.503 153.363 647.321 105.033 633.342 57.2014L633.775 57.0769C647.807 105.104 618.918 153.57 592.212 185.768C564.118 219.649 527.301 249.417 485.756 271.855C446.471 293.071 404.28 307.004 363.215 312.367Z" fill="white" fill-opacity="0.35"/>
<path d="M517.179 812.097C506.155 813.537 495.172 814.639 484.243 815.404C443.754 818.225 406.748 815.665 374.263 807.789C334.551 798.164 302.434 780.681 278.795 755.814C256.035 731.866 243.427 701.949 241.321 666.895C239.552 637.453 245.124 604.881 257.886 570.082L258.314 570.236C238.597 624.018 226.197 699.822 279.128 755.5C333.459 812.654 420.644 819.375 484.219 814.942C495.077 814.183 505.989 813.087 516.9 811.664C677.871 790.643 842.243 698.074 943.103 569.72C987.105 513.728 1034.54 428.981 1010.6 343.22L1011.04 343.096C1021.49 380.562 1019.26 421.069 1004.38 463.496C992.214 498.207 971.72 534.037 943.459 569.999C890.795 637.014 819.975 695.513 738.652 739.161C667.304 777.457 591.387 802.396 517.179 812.091V812.097Z" fill="white" fill-opacity="0.35"/>
<path d="M321.64 464.219C294.044 467.822 267.89 468.984 243.557 467.662C203.537 465.493 168.008 456.574 137.968 441.153C117.516 430.658 100.653 417.063 87.8371 400.759C75.8636 385.522 67.3552 367.832 62.5492 348.192C53.6729 311.929 57.4643 269.798 73.5081 226.358L73.9353 226.512C38.7031 321.921 62.7213 402.01 138.181 440.744C186.686 465.641 248.108 473.381 321.1 463.845C331.43 462.494 341.98 460.799 352.766 458.761C502.441 430.438 643.037 349.277 738.492 236.083C787.074 178.473 839.721 91.1357 814.611 2.24604L815.044 2.12158C825.991 40.8801 822.912 83.0047 805.889 127.34C792.082 163.295 769.524 199.98 738.837 236.373C715.115 264.506 688.089 291.109 658.511 315.449C629.497 339.326 597.92 361.112 564.663 380.201C531.644 399.153 496.899 415.492 461.406 428.749C425.705 442.084 389.185 452.331 352.849 459.205C342.264 461.208 331.857 462.879 321.646 464.213L321.64 464.219Z" fill="white" fill-opacity="0.35"/>
<path d="M423.492 786.477C413.957 787.722 404.469 788.753 395.035 789.571C343.332 794.051 296.109 791.965 254.676 783.36C203.941 772.829 161.938 752.46 129.845 722.822C96.8973 692.402 78.1242 653.276 74.0362 606.535C72.2502 586.077 73.3064 564.102 77.1927 541.226C80.7349 520.342 86.6386 498.604 94.7376 476.611L95.1648 476.765C73.2648 536.242 48.683 647.261 130.154 722.49C203.46 790.175 314.639 796.084 395 789.115C404.63 788.279 414.301 787.23 423.984 785.962C518.105 773.671 614.492 741.111 710.985 688.977C817.507 631.426 904.649 560.6 969.987 478.46C1043.49 386.068 1075.74 298.873 1065.85 219.294C1064.4 207.666 1061.47 196.501 1058.63 185.709L1059.07 185.596C1061.91 196.406 1064.85 207.583 1066.3 219.24C1071.71 262.776 1064.26 309.357 1044.15 357.675C1027.77 397.038 1002.94 437.769 970.343 478.744C936.814 520.887 896.806 560.683 851.433 597.017C809.17 630.863 761.988 661.935 711.199 689.374C660.588 716.718 609.092 738.995 558.149 755.589C512.871 770.34 467.701 780.687 423.498 786.466L423.492 786.477Z" fill="white" fill-opacity="0.35"/>
<path d="M347.575 652.043C300.09 658.248 255.922 658.989 216.045 654.23C160.918 647.658 114.3 630.525 77.4775 603.299C37.5699 573.792 13.7179 533.824 6.59194 484.517C0.534005 442.599 7.01321 394.211 25.3353 344.583L25.7625 344.737C-14.7443 454.452 4.20674 548.557 77.7504 602.932C156.201 660.933 264.87 662.379 347.925 651.528C353.834 650.757 359.596 649.922 365.226 649.045C562.913 618.133 756.957 509.159 884.286 357.532C945.797 284.282 1012.69 172.422 982.026 55.4827L982.465 55.3701C995.809 106.26 991.822 160.617 970.604 216.929C953.143 263.285 924.218 310.684 884.636 357.823C853.089 395.39 816.931 430.883 777.166 463.306C738.065 495.196 695.505 524.105 650.667 549.233C605.948 574.295 559.062 595.541 511.317 612.372C462.996 629.405 413.868 641.898 365.292 649.489C359.34 650.42 353.425 651.267 347.575 652.032V652.043Z" fill="white" fill-opacity="0.35"/>
<path d="M346.358 646.117C344.116 646.407 341.885 646.692 339.648 646.959C255.596 657.093 139.214 654.965 62.0983 587.292C27.5544 556.978 7.56502 517.829 2.68189 470.927C0.534024 450.274 1.34689 428.08 5.10862 404.949C8.56183 383.709 14.513 361.574 22.784 339.166L23.2112 339.32C1.00276 399.473 -23.4426 511.63 62.395 586.954C139.386 654.521 255.632 656.636 339.594 646.514C341.885 646.236 344.187 645.951 346.477 645.649C445.119 632.765 545.267 598.321 644.295 543.217C739.198 490.407 818.848 426.065 881.029 351.973C935.527 287.038 997.987 188.091 986.037 85.5116C984.607 73.2262 981.552 61.5809 978.597 50.3149L979.036 50.2023C981.99 61.4802 985.052 73.1373 986.488 85.4583C991.721 130.398 983.142 178.532 960.981 228.533C942.985 269.134 916.202 310.761 881.373 352.264C849.642 390.074 812.742 425.869 771.701 458.672C732.951 489.637 690.159 518.214 644.514 543.614C596.039 570.585 546.413 592.94 497.018 610.043C446.525 627.526 395.872 639.657 346.352 646.123L346.358 646.117Z" fill="white" fill-opacity="0.35"/>
<path d="M424.221 788.196C376.517 794.431 332.201 795.183 292.246 790.43C236.965 783.858 190.217 766.665 153.305 739.339C113.404 709.796 89.534 669.805 82.3665 620.474C76.2671 578.521 82.7107 530.096 100.985 480.445L101.413 480.599C61.0065 590.344 80.0229 684.514 153.578 738.971C232.154 797.145 341.244 798.567 424.619 787.674C430.499 786.904 436.236 786.08 441.844 785.203C638.842 754.451 832.18 645.862 959.028 494.734C1020.72 421.229 1087.81 309.031 1057.04 191.926L1057.48 191.813C1070.88 242.845 1066.88 297.338 1045.6 353.787C1028.1 400.19 999.09 447.708 959.378 495.03C927.997 532.42 891.988 567.764 852.347 600.081C813.377 631.858 770.948 660.672 726.234 685.729C681.639 710.72 634.902 731.901 587.329 748.685C539.168 765.67 490.242 778.109 441.915 785.654C435.97 786.584 430.066 787.425 424.221 788.19V788.196Z" fill="white" fill-opacity="0.35"/>
<path d="M324.049 456.366C321.961 456.639 319.884 456.9 317.801 457.149C276.909 462.014 239.345 461.593 206.142 455.886C165.273 448.858 131.388 433.805 105.423 411.13C79.1032 388.142 63.9376 358.249 60.3479 322.27C57.3516 292.206 62.7153 257.495 75.8577 221.883L76.2849 222.038C59.2859 268.085 40.5128 353.84 105.726 410.793C164.988 462.548 253.733 464.326 317.748 456.704C319.813 456.461 321.895 456.2 323.96 455.928C478.47 435.749 635.786 348.607 735.876 227.448C774.259 180.986 834.636 89.7253 807.788 0.545175L808.221 0.414795C819.358 37.4072 816.682 78.1985 800.264 121.645C787.075 156.563 765.525 192.257 736.22 227.733C686.392 288.057 621.428 341.175 548.365 381.344C476.892 420.636 399.468 446.517 324.043 456.372L324.049 456.366Z" fill="white" fill-opacity="0.35"/>
<path d="M514.094 809.098C486.213 812.743 459.774 813.881 435.192 812.494C395.225 810.236 359.744 801.24 329.739 785.76C309.305 775.217 292.436 761.586 279.608 745.247C267.611 729.975 259.079 712.255 254.231 692.592C245.284 656.257 248.98 614.061 264.929 570.556L265.356 570.71C230.356 666.184 254.504 746.427 329.947 785.357C385.311 813.922 457.436 820.133 544.33 803.812C691.589 776.159 835.467 693.084 929.196 581.585C977.618 523.986 1030.03 436.637 1004.77 347.582L1005.21 347.457C1016.2 386.228 1013.22 428.37 996.337 472.705C982.613 508.744 960.138 545.469 929.54 581.875C905.907 609.99 878.964 636.57 849.469 660.886C820.533 684.739 789.032 706.489 755.841 725.548C722.888 744.471 688.213 760.763 652.779 773.973C617.144 787.26 580.683 797.453 544.407 804.262C534.131 806.194 524.014 807.806 514.088 809.104L514.094 809.098Z" fill="white" fill-opacity="0.35"/>
<path d="M365.013 306.696C362.467 307.028 359.928 307.324 357.394 307.591C332.836 310.151 308.521 307.917 287.084 301.131C264.621 294.019 246.678 282.238 235.197 267.06C217.712 243.947 215.677 213.753 229.306 179.747L229.727 179.913C216.157 213.764 218.175 243.805 235.559 266.788C258.153 296.657 305.958 312.498 357.347 307.14C359.916 306.874 362.503 306.571 365.072 306.234C450.103 295.128 535.489 247.171 589.518 179.783C613.56 149.795 639.459 104.624 626.305 59.7675L626.738 59.6431C632.499 79.2949 631.206 100.843 622.893 123.689C616.177 142.144 605.069 161.114 589.868 180.073C562.723 213.936 526.773 243.716 485.904 266.195C447.237 287.465 405.603 301.398 365.007 306.702L365.013 306.696Z" fill="white" fill-opacity="0.35"/>
<path d="M581.342 704.634C578.518 705.002 575.705 705.328 572.893 705.618C547.558 708.202 522.507 705.843 500.435 698.791C477.366 691.412 458.896 679.234 447.023 663.564C428.844 639.568 426.625 608.254 440.609 573.015L441.031 573.181C427.111 608.265 429.306 639.426 447.385 663.292C470.745 694.133 519.991 710.572 572.846 705.173C661.145 696.159 751.599 647.474 808.897 578.13C835.431 546.021 864.101 497.685 850.039 449.753L850.472 449.628C864.594 497.756 835.846 546.234 809.247 578.42C781.272 612.277 744.568 642.004 703.106 664.394C664.076 685.468 622.157 699.3 581.342 704.634Z" fill="white" fill-opacity="0.35"/>
<path d="M449.652 267.647C446.572 268.05 443.529 268.251 440.538 268.246C428.209 268.222 417.374 263.421 412.26 255.711C408.065 249.388 407.762 241.488 411.394 232.871L411.809 233.049C408.237 241.523 408.522 249.275 412.634 255.468C417.665 263.054 428.357 267.777 440.538 267.795C465.494 267.837 494.057 253.181 510 232.148C518.817 220.514 521.985 209.823 519.404 200.359L519.843 200.24C522.46 209.841 519.268 220.669 510.362 232.421C502.797 242.395 491.778 251.468 479.33 257.963C469.499 263.09 459.394 266.373 449.658 267.647H449.652Z" fill="white" fill-opacity="0.35"/>
<path d="M588.118 524.751C584.677 525.201 581.271 525.426 577.913 525.415C564.308 525.355 552.779 520.217 547.089 511.671C542.425 504.672 542.052 495.925 546.009 486.372L546.424 486.544C542.526 495.949 542.888 504.554 547.463 511.422C553.076 519.844 564.456 524.911 577.913 524.964C581.247 524.976 584.641 524.751 588.065 524.306C612.878 521.065 639.109 506.136 654.607 485.732C664.344 472.919 667.815 461.113 664.919 450.653L665.358 450.535C668.289 461.137 664.794 473.073 654.969 486.004C639.4 506.498 613.038 521.497 588.112 524.757L588.118 524.751Z" fill="white" fill-opacity="0.35"/>
<path d="M862.701 496.518C844.106 498.947 825.089 499.872 806.114 499.202C779.824 498.272 753.29 494.479 727.26 487.93C700.454 481.186 674.863 471.68 651.201 459.679C599.706 433.562 559.401 396.498 534.647 352.507C528.868 342.29 524.062 331.776 520.359 321.251C512.581 299.146 509.596 276.631 511.495 254.33C513.287 233.268 519.386 212.733 529.615 193.295C549.367 155.769 583.52 124.489 625.771 105.223C674.092 83.1826 730.292 74.3582 788.291 79.686C844.183 84.8242 898.431 102.621 945.162 131.157C965.43 143.531 984.079 158.347 1000.6 175.19C1017.98 192.921 1032.15 212.075 1042.72 232.124C1066.63 277.461 1070.43 324.528 1053.73 368.235C1044.87 391.431 1031.11 412.245 1012.83 430.101C996.064 446.475 975.541 460.355 951.831 471.36C924.965 483.823 894.462 492.369 862.701 496.518ZM711.887 81.458C681.805 85.3872 652.756 93.4115 625.955 105.632C550.833 139.892 485.881 221.925 520.781 321.097C524.477 331.598 529.271 342.088 535.038 352.281C582.778 437.129 689.186 494.621 806.132 498.752C824.365 499.398 843.222 498.533 862.036 496.073C943.18 485.477 1023.84 445.207 1053.3 368.081C1089.57 273.17 1022.54 178.935 944.925 131.542C874.52 88.5578 789.75 71.2883 711.887 81.458Z" fill="white" fill-opacity="0.35"/>
<path d="M862.102 495.089C857.806 495.652 853.486 496.121 849.155 496.506C822.852 498.817 795.844 498.147 768.871 494.514C741.649 490.846 715.014 484.238 689.708 474.863C636.036 454.974 590.568 423.428 558.226 383.626C550.548 374.173 543.725 364.324 537.94 354.344C526.304 334.283 518.799 313.055 515.619 291.252C512.545 270.154 513.589 249.032 518.722 228.474C523.818 208.057 532.79 188.82 545.38 171.308C558.232 153.428 574.501 137.865 593.725 125.046C636.558 96.4932 689.993 80.8713 748.265 79.8756C775.321 79.4134 802.881 82.0921 830.18 87.8407C856.939 93.4767 882.815 101.916 907.082 112.927C994.557 152.622 1075.74 237.227 1059.92 336.76C1056.13 360.608 1047.14 382.785 1033.21 402.667C1020.42 420.909 1003.53 437.171 983.005 451.015C949.179 473.825 906.661 489.27 862.09 495.089H862.102ZM711.686 82.8981C668.437 88.5459 627.966 102.769 593.986 125.426C515.316 177.874 491.915 274.053 538.337 354.119C544.104 364.075 550.916 373.907 558.582 383.342C622.282 461.73 736.321 505.97 849.119 496.061C853.403 495.688 857.705 495.214 862.013 494.651C951.641 482.946 1044.52 430.865 1059.49 336.695C1075.27 237.393 994.231 152.966 906.91 113.342C843.696 84.6582 774.751 74.6604 711.686 82.8981Z" fill="white" fill-opacity="0.35"/>
<path d="M903.208 551.064C899.968 551.485 896.699 551.834 893.394 552.107C852.098 555.491 806.601 548.338 758.167 530.861C711.294 513.941 667.239 489.258 627.225 457.492C586.635 425.271 555.218 389.475 533.84 351.108C528.589 341.584 524.109 332.15 520.537 323.059C511.946 301.22 507.769 278.978 508.457 258.74C509.258 235.188 516.419 214.665 529.752 197.733C542.354 181.726 559.828 169.548 581.692 161.541C600.222 154.755 621.44 151.069 644.763 150.583C687.673 149.694 733.953 159.254 782.316 179.006C829.415 198.237 872.651 224.734 910.826 257.762C950.3 291.915 979.463 328.712 997.494 367.133C1007.37 388.166 1013.27 408.801 1015.05 428.477C1017.13 451.548 1013.35 472.439 1003.83 490.562C993.875 509.508 978.074 524.549 956.886 535.258C941.412 543.081 923.019 548.486 903.214 551.07L903.208 551.064ZM534.237 350.883C555.58 389.197 586.961 424.951 627.503 457.137C667.476 488.873 711.49 513.532 758.316 530.434C806.684 547.893 852.122 555.035 893.352 551.657C923.731 549.167 978.43 537.896 1003.42 490.342C1027.04 445.397 1009.59 393.973 997.079 367.317C979.077 328.955 949.956 292.206 910.523 258.094C872.384 225.101 829.189 198.628 782.138 179.415C733.835 159.692 687.614 150.139 644.769 151.028C615.281 151.638 561.163 158.554 530.108 198.006C505.413 229.368 502.079 274.889 520.959 322.887C524.524 331.96 528.992 341.383 534.237 350.883Z" fill="white" fill-opacity="0.35"/>
<path d="M902.11 549.659C870.61 553.772 835.206 550.957 796.52 541.226C750.65 529.688 705.669 509.627 662.83 481.601C619.559 453.291 583.893 420.417 556.831 383.887C550.162 374.885 544.01 365.586 538.539 356.246C526.939 336.245 518.757 316.557 514.224 297.735C508.819 275.304 508.653 254.176 513.72 234.933C519.434 213.261 531.894 195.073 550.756 180.873C567.446 168.309 588.634 159.473 612.029 155.313C651.13 148.361 695.618 152.26 744.254 166.899C790.361 180.778 834.755 202.765 876.205 232.243C918.646 262.432 952.603 296.71 977.131 334.129C1004.26 375.513 1016.39 414.538 1013.19 450.126C1011.08 473.666 1001.24 495.03 984.767 511.903C969.352 527.684 948.598 539.247 924.746 545.339C917.448 547.2 909.9 548.646 902.116 549.659H902.11ZM538.925 356.015C544.383 365.337 550.53 374.624 557.187 383.614C584.22 420.097 619.843 452.941 663.068 481.222C705.871 509.224 750.804 529.261 796.621 540.788C844.794 552.907 887.858 554.288 924.621 544.901C974.865 532.07 1008.63 495.741 1012.73 450.085C1015.92 414.603 1003.81 375.673 976.739 334.378C952.241 297.006 918.32 262.77 875.926 232.616C834.517 203.162 790.166 181.199 744.105 167.331C695.535 152.711 651.112 148.817 612.089 155.757C561.471 164.753 524.851 194.397 514.141 235.046C502.423 279.523 521.142 325.376 538.913 356.015H538.925Z" fill="white" fill-opacity="0.35"/>
<path d="M882.085 625.932C864.303 628.255 840.937 623.389 812.374 611.389C779.729 597.675 750.347 578.628 742.118 573.122C654.85 514.688 580.885 435.843 533.846 351.102C528.179 340.855 523.445 331.385 519.374 322.152C506.819 293.693 494.003 257.442 506.386 229.457C520.531 197.491 559.958 201.977 582.196 207.5C622.78 217.575 665.204 239.378 708.292 272.305C741.898 297.984 775.801 330.099 811.941 370.487C849.748 412.736 877.789 452.668 897.66 492.565C912.772 522.902 927.285 558.11 920.379 589.23C916.629 606.132 907.931 617.422 894.527 622.785C890.742 624.302 886.594 625.351 882.085 625.938V625.932ZM534.237 350.883C581.241 435.559 655.159 514.356 742.367 572.749C750.584 578.254 779.943 597.278 812.546 610.974C848.235 625.967 875.76 629.802 894.361 622.358C907.616 617.054 916.219 605.877 919.94 589.123C926.816 558.14 912.333 523.026 897.256 492.76C877.404 452.9 849.386 413.003 811.603 370.784C729.634 279.192 654.559 225.919 582.084 207.933C559.982 202.445 520.81 197.971 506.796 229.635C494.484 257.46 507.27 293.593 519.784 321.962C523.848 331.184 528.577 340.642 534.237 350.871V350.883Z" fill="white" fill-opacity="0.35"/>
<path d="M881.355 621.256C869.494 622.803 855.082 621.582 838.623 617.552C818.319 612.586 794.539 603.133 775.012 592.276C692.272 546.27 614.794 473.316 556.855 386.85C550.079 376.74 543.778 366.611 538.13 356.75C533.881 349.312 519.357 322.644 510.718 291.803C502.334 261.863 502.595 239.194 511.495 224.42C519.63 210.914 535.032 204.407 557.276 205.088C576.981 205.687 597.973 210.463 619.671 219.282C638.67 227.004 658.772 238.057 679.426 252.132C718.545 278.8 753.972 312.32 780.471 338.538C804.857 362.67 840.581 399.533 869.162 440.851C883.479 461.546 894.919 481.82 903.172 501.116C912.529 522.991 918.094 544.314 919.714 564.493C921.654 588.655 915.585 605.433 901.671 614.37C896.153 617.913 889.33 620.213 881.355 621.256ZM538.521 356.525C544.164 366.374 550.459 376.497 557.229 386.595C615.132 473.002 692.551 545.908 775.232 591.879C805.005 608.437 869.702 634.365 901.422 613.99C915.187 605.148 921.186 588.507 919.257 564.529C912.369 478.833 836.564 394.691 780.144 338.858C718.723 278.077 637.881 207.998 557.253 205.539C535.181 204.863 519.914 211.299 511.875 224.651C503.046 239.313 502.803 261.863 511.151 291.678C519.772 322.466 534.279 349.093 538.521 356.525Z" fill="white" fill-opacity="0.35"/>
<path d="M792.806 702.921C788.57 703.473 781.313 698.945 770.74 689.154C745.541 665.834 724.175 637.631 703.509 610.363L700.566 606.476C638.599 524.763 582.588 438.99 534.113 351.57C528.731 341.869 523.913 332.926 519.386 324.232C517.523 320.658 514.966 316.255 511.999 311.152C500.115 290.707 483.846 262.704 487.038 245.476C487.874 240.955 489.619 238.27 492.223 237.494C499.213 235.408 510.943 247.651 517.944 254.965C518.959 256.025 519.914 257.021 520.727 257.839C582.535 320.196 631.87 396.836 679.586 470.951L681.503 473.926C712.528 522.114 736.908 562.994 758.227 602.57C760.802 607.353 763.561 612.248 766.48 617.433C778.869 639.42 792.919 664.347 796.633 688.171C797.897 696.272 797.131 700.948 794.289 702.459C793.844 702.696 793.358 702.85 792.818 702.915L792.806 702.921ZM493.161 237.76C492.882 237.796 492.609 237.855 492.348 237.932C489.921 238.655 488.284 241.221 487.477 245.565C484.314 262.627 501.206 291.696 512.385 310.927C515.352 316.03 517.915 320.445 519.778 324.025C524.305 332.719 529.123 341.656 534.498 351.357C582.968 438.765 638.961 524.508 700.922 606.209L703.865 610.097C724.519 637.352 745.879 665.538 771.043 688.828C782.808 699.715 790.338 704.047 794.064 702.068C796.675 700.681 797.387 696.029 796.176 688.254C792.474 664.507 778.447 639.622 766.076 617.671C763.157 612.485 760.398 607.59 757.817 602.801C736.505 563.231 712.131 522.363 681.111 474.187L679.195 471.212C631.491 397.115 582.167 320.498 520.395 258.171C519.582 257.347 518.621 256.345 517.606 255.29C510.949 248.333 499.978 236.877 493.155 237.772L493.161 237.76Z" fill="white" fill-opacity="0.35"/>
<path d="M792.035 700.503C789.792 700.794 786.742 700.077 782.814 698.34C763.614 689.848 745.689 665.532 731.277 645.987C727.403 640.73 723.742 635.764 720.39 631.562C663.109 559.716 608.772 479.515 554.274 386.376C548.157 375.922 542.603 366.226 537.299 356.726C535.905 354.225 534.498 351.719 533.086 349.206C517.677 321.713 501.74 293.29 492.206 263.416C489.417 254.668 487.02 243.598 491.47 240.534C494.561 238.406 500.358 240.682 508.694 247.302C530.683 264.761 548.768 288.289 566.254 311.04C568.84 314.406 571.511 317.885 574.115 321.233C600.916 355.695 628.755 394.673 659.223 440.389C662.291 444.994 665.382 449.616 668.479 454.257C714.219 522.724 761.52 593.526 789.946 669.627L790.587 671.328C794.331 681.284 799.457 694.915 794.871 699.235C794.135 699.929 793.186 700.355 792.023 700.503H792.035ZM537.696 356.513C543.001 366.007 548.549 375.703 554.666 386.151C609.152 479.266 663.477 559.45 720.746 631.283C724.104 635.497 727.765 640.463 731.645 645.726C746.022 665.224 763.911 689.492 782.998 697.931C788.694 700.45 792.587 700.776 794.568 698.909C798.935 694.79 793.66 680.769 790.172 671.488L789.531 669.787C761.122 593.734 713.839 522.955 668.111 454.511C665.014 449.871 661.923 445.249 658.855 440.644C628.393 394.934 600.56 355.968 573.765 321.512C571.16 318.163 568.485 314.679 565.898 311.318C548.43 288.585 530.363 265.081 508.415 247.657C500.37 241.269 494.597 238.934 491.731 240.913C488.438 243.183 488.764 251.124 492.645 263.285C502.162 293.118 518.087 321.524 533.49 348.992C534.902 351.511 536.308 354.018 537.702 356.519L537.696 356.513Z" fill="white" fill-opacity="0.35"/>
<path d="M664.065 770.891C663.157 771.009 662.196 771.015 661.181 770.915C638.029 768.586 613.436 722.152 600.228 697.208C597.866 692.752 595.831 688.905 594.206 686.067C576.204 654.574 558.386 619.134 539.738 577.727C520.033 533.972 504.078 495.143 490.96 459.004C475.1 415.308 463.156 375.092 454.44 336.055C454.167 334.84 453.764 333.193 453.253 331.101C449.189 314.501 439.666 275.636 448.904 260.541C450.767 257.501 453.324 255.575 456.511 254.816C476.72 250.022 503.965 298.037 515.607 318.543C517.179 321.31 518.419 323.491 519.351 325.044C524.542 333.667 529.758 342.746 535.288 352.791C572.715 420.707 606.571 497.691 635.911 581.603C637.56 586.32 652.34 628.948 663.353 672.638C676.495 724.778 678.934 756.561 670.603 767.116C668.888 769.291 666.693 770.547 664.065 770.891ZM457.828 255.03C457.418 255.083 457.015 255.154 456.617 255.249C453.556 255.978 451.088 257.833 449.29 260.772C440.147 275.707 449.64 314.448 453.692 330.994C454.203 333.086 454.612 334.739 454.879 335.96C475.616 428.856 513.477 518.327 540.147 577.543C558.79 618.939 576.601 654.367 594.597 685.847C596.223 688.692 598.264 692.544 600.625 697.001C613.797 721.874 638.314 768.165 661.223 770.47C665.002 770.849 668.034 769.629 670.241 766.831C690.759 740.838 637.744 588.234 635.478 581.751C606.149 497.863 572.3 420.903 534.884 353.01C529.36 342.971 524.151 333.898 518.959 325.281C518.022 323.722 516.781 321.535 515.209 318.768C503.853 298.766 477.568 252.458 457.822 255.036L457.828 255.03Z" fill="white" fill-opacity="0.35"/>
<path d="M664.302 768.111C660.101 768.663 654.761 766.328 648.365 761.142C621.968 739.736 603.651 704.616 587.489 673.627C584.985 668.833 582.624 664.299 580.244 659.843C562.183 625.997 544.775 589.354 527.022 547.816C491.861 465.546 459.442 384.924 448.999 303.193L448.892 302.364C447.391 290.683 444.276 266.373 453.437 259.7C456.849 257.216 461.661 257.4 467.748 260.251C493.374 272.246 513.399 311.235 528.025 339.712C530.962 345.431 533.733 350.83 536.267 355.446C540.515 363.186 544.87 371.37 549.213 379.768C586.546 452.022 618.556 528.686 644.354 607.637L645.084 609.871C658.529 651 672.425 693.528 674.834 736.405C675.379 746.166 675.095 763.151 667.007 767.276C666.165 767.709 665.263 767.981 664.302 768.111ZM457.697 258.508C456.196 258.704 454.867 259.226 453.71 260.067C444.763 266.58 447.86 290.712 449.343 302.31L449.45 303.14C459.881 384.817 492.295 465.398 527.438 547.644C545.184 589.171 562.587 625.801 580.642 659.635C583.021 664.092 585.383 668.625 587.887 673.426C604.031 704.373 622.324 739.452 648.65 760.798C656.357 767.051 662.463 769.095 666.8 766.885C674.656 762.873 674.923 746.089 674.383 736.441C671.98 693.623 658.09 651.119 644.657 610.02L643.927 607.779C618.135 528.852 586.136 452.206 548.81 379.975C544.472 371.578 540.117 363.393 535.869 355.66C533.335 351.037 530.559 345.632 527.622 339.913C513.026 311.502 493.042 272.59 467.559 260.66C463.732 258.87 460.433 258.153 457.697 258.508Z" fill="white" fill-opacity="0.35"/>
<path d="M527.123 812.909C525.67 813.099 524.186 813.241 522.679 813.342C487.72 815.582 455.431 791.817 426.708 742.699C408.842 712.149 392.532 671.944 378.238 623.206C352.209 534.47 344.976 448.194 357.305 373.705C361.583 347.872 367.356 327.302 374.963 310.815C385.999 286.89 400.927 271.778 419.338 265.899C458.386 253.43 493.819 289.794 516.675 322.496C522.614 330.994 528.357 340.281 534.243 350.883C572.365 420.008 595.541 505.289 601.26 597.491C605.105 659.475 605.354 802.692 527.123 812.909ZM428.654 264.269C425.616 264.666 422.56 265.342 419.475 266.325C388.26 276.288 368.074 311.437 357.75 373.776C345.427 448.194 352.66 534.405 378.665 623.075C404.808 712.202 451.005 817.478 522.644 812.885C604.921 807.623 604.714 660.512 600.803 597.515C595.09 505.383 571.926 420.162 533.84 351.096C527.966 340.506 522.222 331.237 516.295 322.75C495.344 292.763 463.785 259.676 428.654 264.269Z" fill="white" fill-opacity="0.35"/>
<path d="M528.262 811.386C518.455 812.666 507.804 810.983 496.389 806.331C463.298 792.848 434.617 761.272 411.15 712.492C395.219 679.382 381.757 638.715 369.991 588.175C345.688 483.8 345.545 396.8 369.575 329.589C377.461 307.531 400.755 257.282 446.673 266.995C465.399 270.954 483.513 282.907 500.512 302.524C516.176 320.593 528.63 342.574 536.634 357.538C541.108 365.948 545.428 374.772 549.474 383.762C566.521 421.632 579.633 462.482 588.444 505.164C597.054 546.874 601.403 589.562 601.379 632.042C601.373 642.982 600.637 681.829 591.5 722.342C582.232 763.436 567.838 790.78 548.727 803.599C542.408 807.836 535.572 810.438 528.274 811.392L528.262 811.386ZM428.95 266.628C394.893 271.078 376.755 310.832 369.991 329.743C345.996 396.872 346.139 483.788 370.424 588.074C382.184 638.579 395.635 679.21 411.554 712.297C434.973 760.976 463.571 792.475 496.555 805.916C516.325 813.97 533.786 813.063 548.46 803.219C567.476 790.466 581.805 763.216 591.043 722.235C600.169 681.764 600.904 642.964 600.91 632.036C600.97 545.232 583.033 459.442 549.047 383.946C545.006 374.968 540.687 366.149 536.219 357.752C516.182 320.297 487.88 276.181 446.566 267.445C440.277 266.112 434.403 265.916 428.95 266.628Z" fill="white" fill-opacity="0.35"/>
<path d="M402.345 821.052C390.556 822.593 378.564 822.261 366.484 820.044C344.193 815.961 323.782 806.064 305.834 790.626C289.873 776.9 275.74 758.73 263.832 736.607C237.191 687.134 228.807 632.581 226.185 604.473C221.135 550.412 225.734 495.421 239.487 445.45C246.945 418.349 257.02 393.197 269.439 370.701C282.771 346.539 298.868 325.352 317.273 307.721C347.213 279.043 383.756 264.755 420.163 267.481C456.54 270.207 490.497 289.764 515.779 322.543C522.27 330.958 528.488 340.494 534.249 350.877C558.689 395.123 572.691 448.84 574.732 506.231C576.643 559.942 568.241 615.075 550.435 665.674C535.198 708.978 510.741 749.657 483.335 777.28C466.734 794.01 448.999 806.23 430.618 813.602C421.362 817.312 411.916 819.801 402.345 821.052ZM395.943 268.607C367.95 272.264 340.781 285.817 317.576 308.041C237.292 384.936 217.955 511.565 226.63 604.425C229.252 632.504 237.624 686.985 264.229 736.388C289.784 783.84 324.215 811.836 366.567 819.594C408.201 827.221 447.379 812.873 483.015 776.954C510.373 749.378 534.789 708.765 550.008 665.52C587.821 558.069 581.621 437.58 533.852 351.09C528.096 340.725 521.896 331.207 515.417 322.81C490.212 290.132 456.368 270.64 420.122 267.92C412.046 267.315 403.959 267.552 395.943 268.595V268.607Z" fill="white" fill-opacity="0.35"/>
<path d="M399.705 818.847C399.485 818.877 399.266 818.907 399.046 818.93C378.671 821.467 358.32 818.041 338.544 808.749C317.54 798.881 298.969 783.935 283.346 764.325C269.356 746.759 257.608 725.323 248.435 700.616C227.715 644.807 225.318 587.221 225.728 557.856C226.469 505.295 236.402 451.839 253.703 407.349C263.66 381.747 276.036 358.907 290.49 339.469C306.35 318.14 324.844 300.752 345.451 287.785C360.759 278.154 376.701 272.015 392.846 269.537C407.994 267.208 423.32 268.091 438.402 272.151C458.172 277.473 476.951 287.968 494.205 303.336C510.587 317.926 525.029 336.677 535.982 357.574C541.399 367.939 546.318 379.045 550.595 390.59C568.562 439.014 576.251 494.106 572.834 549.896C569.452 605.19 555.33 659.025 531.995 705.582C512.593 744.293 483.964 777.955 453.461 797.933C435.875 809.448 417.784 816.489 399.687 818.853L399.705 818.847ZM395.457 269.68C378.499 271.896 361.732 278.089 345.706 288.17C259.631 342.319 227.531 462.992 226.196 557.867C224.861 652.767 253.721 768.402 338.746 808.34C376.084 825.876 415.672 822.148 453.235 797.548C483.673 777.617 512.242 744.021 531.615 705.375C579.574 609.694 586.694 489.133 550.198 390.744C545.926 379.223 541.013 368.135 535.602 357.781C512.717 314.122 477.254 283.067 438.307 272.584C424.115 268.761 409.72 267.813 395.463 269.674L395.457 269.68Z" fill="white" fill-opacity="0.35"/>
<path d="M314.662 793.696C294.103 796.38 273.663 795.705 253.703 791.663C207.038 782.21 168.59 754.184 142.525 710.614C119.361 671.891 107.465 623.348 109.025 573.922C110.752 519.281 126.356 464.195 154.142 414.621C182.492 364.039 221.788 322.525 267.783 294.582C308.385 269.911 354.766 258.271 398.376 261.809C445.837 265.662 486.391 286.872 515.666 323.159C522.744 331.936 529.17 341.584 534.754 351.837C558.956 396.083 568.265 449.646 561.667 506.735C555.728 558.164 536.765 611.311 508.279 656.387C480.369 700.545 441.974 738.462 400.15 763.151C377.182 776.711 353.526 786.122 329.846 791.112C324.785 792.178 319.718 793.044 314.662 793.701V793.696ZM357.543 263.255C325.449 267.445 294.37 278.943 268.015 294.962C175.283 351.31 113.054 460.811 109.47 573.934C106.622 663.932 150.57 770.31 253.786 791.218C274.167 795.343 294.37 795.793 314.069 793.221C394.258 782.75 466.129 722.224 507.893 656.144C555.568 580.708 591.102 455.803 534.35 352.05C528.779 341.821 522.371 332.197 515.304 323.438C472.988 270.983 413.719 255.919 357.537 263.261L357.543 263.255Z" fill="white" fill-opacity="0.35"/>
<path d="M313.037 791.699C282.878 795.64 251.959 792.41 221.901 779.502C178.22 760.739 145.432 724.653 127.08 675.144C111.114 632.066 106.818 580.992 114.994 531.335C119.361 504.797 126.967 478.389 137.594 452.84C148.321 427.061 161.891 402.727 177.929 380.527C212.022 333.329 255.709 297.954 304.267 278.226C347.557 260.636 394.223 258.331 435.673 271.724C456.594 278.486 475.64 288.994 492.295 302.962C509.65 317.523 524.008 335.534 534.967 356.507C540.319 366.706 544.965 377.706 548.78 389.209C564.883 437.781 566.212 492.831 552.619 548.403C546.252 574.432 536.753 600.057 524.394 624.557C512.195 648.731 497.48 671.292 480.653 691.608C439.328 741.502 377.965 783.218 313.037 791.699ZM354.623 265.294C337.933 267.475 321.082 271.878 304.445 278.64C208.491 317.624 134.307 416.843 115.445 531.406C99.9944 625.25 126.973 738.231 222.085 779.087C252.054 791.959 282.901 795.177 312.983 791.248C377.793 782.785 439.043 741.135 480.309 691.318C553.265 603.24 579.977 484.706 548.359 389.351C544.555 377.872 539.916 366.896 534.576 356.72C499.587 289.8 428.689 255.616 354.623 265.294Z" fill="white" fill-opacity="0.35"/>
<path d="M284.456 736.026C274.963 737.265 265.475 738.035 256.023 738.331C228.991 739.179 202.801 736.097 178.184 729.175C129.655 715.533 88.6677 686.612 62.7628 647.729C36.3951 608.153 25.4955 558.401 32.0697 507.635C35.3567 482.259 42.7675 456.906 54.0942 432.288C64.8869 408.831 79.0201 386.471 96.1022 365.835C114.365 343.765 135.672 324.019 159.423 307.146C183.103 290.321 208.758 276.673 235.672 266.58C261.138 257.033 287.304 250.869 313.428 248.262C340.763 245.536 367.582 246.762 393.143 251.912C443.018 261.964 486.569 287.382 515.773 323.485C523.249 332.73 529.888 342.746 535.501 353.247C557.757 394.809 564.23 445.48 553.74 495.925C548.46 521.319 539.156 546.364 526.097 570.372C513.589 593.366 497.866 615.01 479.354 634.703C459.602 655.718 437.049 674.184 412.313 689.587C387.464 705.061 360.925 717.121 333.424 725.442C317.214 730.343 300.82 733.881 284.444 736.02L284.456 736.026ZM304.641 249.69C281.685 252.689 258.592 258.473 235.832 267.007C181.441 287.4 133.245 321.672 96.4523 366.125C61.0896 408.855 38.982 457.812 32.5206 507.695C25.9643 558.353 36.8401 607.993 63.1425 647.48C88.9881 686.268 129.887 715.13 178.309 728.743C226.677 742.338 280.273 741.052 333.299 725.015C388.669 708.267 439.061 676.934 479.028 634.401C517.209 593.769 542.894 545.855 553.295 495.842C563.768 445.497 557.306 394.934 535.104 353.467C529.503 342.989 522.881 332.997 515.423 323.776C486.284 287.755 442.828 262.39 393.054 252.363C364.544 246.62 334.705 245.761 304.641 249.69Z" fill="white" fill-opacity="0.35"/>
<path d="M284.569 734.13C262.313 737.039 240.205 737.324 218.72 734.971C192.715 732.127 168.216 725.465 145.901 715.171C101.098 694.506 66.2338 659.007 47.7336 615.223C38.4302 593.206 33.28 569.282 32.4316 544.106C31.6246 520.217 34.6803 495.883 41.5214 471.781C48.6711 446.588 59.7427 422.035 74.4336 398.804C88.5609 376.455 105.779 355.707 125.621 337.122C146.607 317.464 170.085 300.562 195.408 286.89C221.058 273.034 248.102 262.769 275.787 256.369C301.342 250.46 327.063 247.989 352.226 249.008C378.731 250.087 404.048 255.042 427.479 263.735C474.038 281.017 511.827 313.369 533.881 354.818C539.405 365.183 544.01 376.194 547.564 387.555C554.713 410.407 557.662 434.866 556.321 460.242C555.057 484.214 550.02 508.376 541.363 532.07C523.29 581.52 490.728 626.56 447.207 662.326C425.177 680.431 400.992 695.644 375.343 707.538C349.141 719.687 321.866 728.15 294.276 732.695C291.036 733.229 287.802 733.709 284.569 734.13ZM304.813 251.569C295.219 252.825 285.565 254.567 275.888 256.802C220.417 269.62 168.56 297.51 125.929 337.448C85.1077 375.685 56.07 422.183 41.9605 471.899C27.8926 521.468 30.0938 572.304 48.1549 615.045C66.6135 658.722 101.395 694.138 146.09 714.756C189.849 734.942 241.065 740.992 294.198 732.245C349.183 723.195 401.989 698.891 446.916 661.97C490.378 626.252 522.887 581.277 540.936 531.904C558.766 483.118 560.967 431.902 547.13 387.68C543.582 376.348 538.99 365.355 533.478 355.019C511.477 313.665 473.777 281.39 427.319 264.15C389.701 250.188 347.83 245.945 304.807 251.563L304.813 251.569Z" fill="white" fill-opacity="0.35"/>
<path d="M319.925 660.459C319.047 660.572 318.181 660.684 317.303 660.791C289.481 664.21 261.262 664.27 233.435 660.969C205.365 657.638 178.202 650.941 152.694 641.062C105.661 622.85 64.5843 592.146 37.0299 554.614C6.31901 512.774 -5.63666 465.327 2.46234 417.406C10.7037 368.638 37.9793 324.487 81.3401 289.717C119.747 258.923 169.284 236.812 220.821 227.454C246.856 222.731 273.74 220.994 300.725 222.298C328.303 223.632 355.246 228.106 380.807 235.609C436.088 251.824 482.273 281.485 514.367 321.387C521.783 330.609 528.47 340.529 534.243 350.883C546.033 372.295 553.23 395.111 555.633 418.698C557.911 441.07 555.858 463.792 549.539 486.229C537.281 529.723 509.359 569.993 470.917 599.619C428.844 632.042 376.678 653.057 319.931 660.471L319.925 660.459ZM238.686 225.119C232.759 225.896 226.837 226.814 220.898 227.893C125.407 245.233 20.9743 310.572 2.90734 417.478C-15.0825 523.945 68.0257 607.791 152.86 640.641C259.625 681.983 384.355 665.733 470.638 599.251C553.254 535.59 579.242 433.55 533.846 351.096C528.09 340.767 521.415 330.864 514.017 321.66C454.57 247.764 347.972 210.843 238.686 225.119Z" fill="white" fill-opacity="0.35"/>
<path d="M318.727 658.805C303.621 660.779 288.283 661.763 272.827 661.721C215.647 661.579 160.752 647.421 114.074 620.764C71.4789 596.442 37.6945 560.197 18.9452 518.706C-1.3409 473.814 -2.82424 426.355 14.6613 381.463C32.8944 334.639 68.5894 294.914 117.884 266.58C162.01 241.215 215.528 226.044 268.584 223.857C321.415 221.676 375.752 232.053 421.581 253.074C472.768 276.554 511.993 312.409 535.009 356.762C540.331 367.151 544.627 377.747 547.789 388.261C561.376 433.467 555.953 480.641 532.119 524.686C510.528 564.582 475.035 599.328 432.178 622.524C397.545 641.269 358.961 653.555 318.733 658.805H318.727ZM239.754 226.796C149.461 238.59 51.3293 288.549 15.0826 381.629C-24.7776 483.977 38.5726 577.134 114.3 620.373C209.156 674.534 333.839 675.221 431.959 622.121C508.861 580.5 577.77 489.607 547.356 388.391C544.205 377.907 539.916 367.335 534.605 356.969C480.737 253.175 357.644 220.633 268.602 224.307C259.138 224.699 249.485 225.528 239.754 226.796Z" fill="white" fill-opacity="0.35"/>
</g>
<defs>
<clipPath id="clip0_7_29">
<rect width="1068" height="822" fill="white"/>
</clipPath>
</defs>
</svg>
