<svg width="158" height="157" viewBox="0 0 158 157" fill="none" xmlns="http://www.w3.org/2000/svg">
<path d="M26.8185 52.5089C30.3743 54.2839 33.9293 56.4317 36.912 59.4029C38.3814 60.8913 39.6727 62.5437 40.76 64.327C41.8177 66.0817 42.7162 67.9264 43.4449 69.8393C44.9554 73.8604 45.7751 78.0202 46.4111 82.0964C46.5777 83.1078 46.728 84.1186 46.8695 85.1261L47.2768 88.1428L43.5669 88.6019C42.9721 83.8567 42.5061 78.9806 42.9144 74.0341C43.3031 69.1095 44.6056 64.0912 47.248 59.6959C47.9112 58.5907 48.6575 57.537 49.4807 56.5437C50.306 55.532 51.223 54.5978 52.2204 53.7529C52.4633 53.5307 52.7272 53.338 52.9855 53.1369C53.2474 52.9411 53.4994 52.7287 53.7706 52.5478C54.3116 52.1833 54.8482 51.8073 55.4145 51.4905C56.5254 50.8336 57.6834 50.2586 58.8791 49.7702C60.0532 49.2878 61.2534 48.8704 62.474 48.52C63.6829 48.1846 64.8967 47.8745 66.1071 47.6317C68.5305 47.1202 70.9385 46.7753 73.3129 46.4364L73.547 50.9078L71.4311 50.8626C69.1321 50.8197 66.8123 50.6973 64.4745 50.5095C62.0815 50.3387 59.7048 49.9896 57.3645 49.4652C54.8971 48.9174 52.5329 47.9842 50.3599 46.7002C49.2373 46.0112 48.1994 45.1944 47.2673 44.2664C46.339 43.3333 45.531 42.2892 44.8618 41.1581C43.54 38.9482 42.7293 36.636 42.0363 34.412C41.3366 32.1742 40.7539 29.9019 40.2905 27.6043C39.8154 25.3106 39.4762 22.9911 39.2744 20.658C39.1772 19.4919 39.1015 18.3244 39.0649 17.1557L39.0379 16.2794C39.0309 15.9874 39.0383 15.6948 39.0136 15.4032C38.9799 14.8195 38.9726 14.2349 38.951 13.6503L42.94 13.8379C42.6048 18.1032 42.246 22.4413 41.4188 26.8006C41.306 27.3445 41.2028 27.8908 41.0811 28.4334L40.6719 30.0588L40.2045 31.6776L39.673 33.2858C38.9197 35.446 37.9581 37.5287 36.8016 39.505C34.5654 43.2409 31.4983 46.4187 27.8353 48.7948C26.4192 49.741 24.8698 50.4737 23.2377 50.9689C22.6417 51.1385 22.0331 51.2607 21.4176 51.3342C21.1432 51.3639 20.8847 51.3832 20.6421 51.3922L20.4628 51.3974L20.3178 51.3793C20.2159 51.3655 20.1177 51.3522 20.023 51.3393C18.8495 51.169 18.1979 50.966 19.102 50.0827C19.2328 49.9602 19.3712 49.8458 19.5162 49.7402C19.592 49.6816 19.6992 49.6153 19.7675 49.5598C19.8311 49.507 19.8974 49.4518 19.9666 49.3944C20.2431 49.1666 20.5772 48.9439 20.946 48.6804C21.3116 48.4105 21.7367 48.154 22.1831 47.8369C22.4096 47.6867 22.6462 47.5298 22.893 47.3661C23.1351 47.1958 23.3885 47.0228 23.6532 46.8472C25.023 45.9136 26.3298 44.892 27.5653 43.7888C28.8271 42.68 30.001 41.4761 31.0765 40.1879C32.5425 38.4113 33.7747 36.4564 34.7433 34.3703C35.7225 32.2399 36.5016 30.0241 37.0706 27.7512C38.292 23.1704 38.8442 18.3521 39.3625 13.4956L39.3628 13.4929C39.4059 13.0905 39.6022 12.7198 39.9115 12.4565C40.2207 12.1933 40.6196 12.0575 41.0263 12.077C41.433 12.0965 41.8169 12.2698 42.0992 12.5614C42.3815 12.8529 42.541 13.2407 42.5449 13.6453C42.5522 14.4332 42.526 15.2226 42.5815 16.0098C42.6318 16.7967 42.6914 17.5826 42.7716 18.3665C42.9248 19.9349 43.1526 21.494 43.4125 23.0448C43.927 26.1446 44.6809 29.2003 45.6676 32.185C46.2988 34.2261 47.1186 36.2048 48.1166 38.0959C48.586 38.9505 49.1394 39.757 49.7687 40.5033C50.3827 41.2046 51.0629 41.8459 51.8 42.4184C52.4918 42.9328 53.2262 43.388 53.9955 43.779C54.8002 44.1726 55.6308 44.5117 56.4816 44.7938C58.2621 45.3585 60.0919 45.7564 61.947 45.9824C65.7466 46.4737 69.6955 46.5454 73.6672 46.6911L73.6905 46.692C74.1881 46.7102 74.6606 46.9136 75.0143 47.2618C75.368 47.61 75.5771 48.0776 75.6001 48.5719C75.623 49.0661 75.4582 49.5508 75.1383 49.93C74.8183 50.3091 74.3667 50.5548 73.8729 50.6185C70.8575 51.0074 67.8904 51.4143 65.039 52.0745C62.1993 52.7489 59.4494 53.6328 57.0211 55.0202C55.9853 55.6081 55.0072 56.2912 54.0998 57.0606C53.1979 57.8473 52.3718 58.7158 51.632 59.6547C50.1552 61.5964 48.9943 63.7563 48.1914 66.0556C47.3698 68.3888 46.8398 70.8134 46.6133 73.275C46.3778 75.7772 46.3254 78.293 46.4567 80.8027C46.5621 83.2459 46.8122 85.7035 47.1023 88.1699L47.1041 88.1863C47.1561 88.6286 47.0294 89.0734 46.7518 89.423C46.4743 89.7727 46.0685 89.9987 45.6235 90.0516C45.1785 90.1045 44.7306 89.9798 44.3779 89.705C44.0252 89.4302 43.7966 89.0277 43.7421 88.5857C43.2549 84.6244 42.7406 80.6969 41.819 76.9109C41.3861 75.0266 40.8329 73.1715 40.1627 71.3571C39.4937 69.5748 38.6574 67.8589 37.6649 66.2323C37.4044 65.8391 37.1624 65.4313 36.8884 65.0482L36.0415 63.9175C35.4459 63.1899 34.8125 62.4938 34.1438 61.8319C32.76 60.514 31.2434 59.3411 29.618 58.3315C28.7996 57.8151 27.9559 57.3282 27.0941 56.8642C26.6632 56.6323 26.2282 56.4057 25.789 56.1844L25.1275 55.8556L24.7968 55.6945L24.4827 55.5547C24.0729 55.3589 23.6232 55.2004 23.1863 55.0288C22.7317 54.8816 22.2873 54.7144 21.8207 54.5876C20.9022 54.3037 19.9538 54.0884 19.0059 53.8843C17.1675 53.5034 15.3023 53.2641 13.4268 53.1685C11.6091 53.0796 9.81536 53.1859 8.32457 53.6988L7.89607 52.0049L7.89468 51.893H7.89639H7.90688H7.92091H7.949L8.00516 51.8933C8.04159 51.894 8.07891 51.8949 8.13137 51.8923L8.42146 51.8828L9.01149 51.8586C9.40725 51.841 9.80075 51.8235 10.192 51.8062C10.9776 51.7751 11.7535 51.7444 12.5199 51.7141C14.0551 51.659 15.554 51.626 17.0184 51.5952C17.5167 51.5766 18.0156 51.5959 18.5109 51.6531C18.703 51.6684 18.8178 51.7259 18.995 51.7253C19.1103 51.7221 19.2239 51.754 19.3205 51.8167L19.6112 51.4795C19.5701 51.6334 19.5132 51.7012 19.5403 51.715C19.5588 51.7288 19.6598 51.6852 19.752 51.5381C19.7632 51.5204 19.7703 51.5005 19.7728 51.4798C19.7753 51.459 19.7731 51.438 19.7665 51.4182C19.7599 51.3984 19.7489 51.3803 19.7344 51.3652C19.7199 51.3501 19.7022 51.3383 19.6826 51.3308C19.663 51.3233 19.642 51.3202 19.621 51.3217C19.6001 51.3232 19.5797 51.3293 19.5614 51.3395C19.5431 51.3497 19.5273 51.3639 19.5151 51.3809C19.5029 51.3979 19.4947 51.4174 19.491 51.4379L19.4004 51.9462C19.3836 52.0402 19.2558 52.1838 19.0187 52.3435C18.854 52.4768 18.6747 52.5912 18.4842 52.6845C17.8969 52.9699 17.2775 53.1847 16.6391 53.3244C15.2562 53.6405 13.8633 53.9199 12.4498 54.1856C11.7434 54.3179 11.0322 54.4453 10.316 54.5676L9.23215 54.7462L8.67514 54.8309L8.38521 54.8717C8.27629 54.886 8.11345 54.9004 7.97959 54.9119C7.50007 54.9529 7.0212 54.826 6.62597 54.5531C6.23074 54.2801 5.94404 53.8784 5.81556 53.4175C5.68707 52.9566 5.72489 52.4656 5.92246 52.0295C6.12003 51.5934 6.4649 51.2397 6.89732 51.0297L7.03557 50.9635C8.14942 50.4485 9.33257 50.0967 10.5481 49.9191C11.1111 49.8513 11.6854 49.7638 12.2375 49.7438C12.5156 49.7286 12.7965 49.7061 13.0727 49.699L13.8971 49.6924C16.0847 49.7139 18.2638 49.9669 20.3974 50.4472C21.4755 50.6784 22.5413 50.963 23.5908 51.3001L24.3868 51.564L25.1863 51.8663C25.4507 51.9603 25.7229 52.0878 25.9917 52.2038L26.3952 52.3814L26.7547 52.5537C26.7754 52.5381 26.7949 52.5237 26.8185 52.5089Z" fill="black"/>
<path d="M121.339 61.6748C123.193 63.8835 124.688 66.3666 125.77 69.0342C125.902 69.3682 126.045 69.6975 126.167 70.0352L126.492 71.0642C126.596 71.4085 126.717 71.7466 126.804 72.0956L127.043 73.1488C127.115 73.5011 127.214 73.8471 127.263 74.2042L127.411 75.2746L127.483 75.8094C127.508 75.9859 127.532 76.1642 127.544 76.3605C127.573 76.7452 127.588 77.1428 127.578 77.5566C127.568 78.3004 127.446 79.0386 127.217 79.7467C127.074 80.1593 126.884 80.5539 126.649 80.9224C126.387 81.3152 126.07 81.6686 125.707 81.9718L125.681 81.9932C125.381 82.2438 125.011 82.3982 124.621 82.4363C124.231 82.4743 123.838 82.3941 123.494 82.2063C123.151 82.0185 122.872 81.7318 122.695 81.3839C122.519 81.036 122.452 80.6431 122.504 80.2568C122.747 78.4673 123.092 76.693 123.538 74.9425C124.264 72.0158 125.387 69.2011 126.878 66.5763C128.406 63.8928 130.403 61.5012 132.775 59.5134C135.204 57.5196 138.009 56.0279 141.026 55.1258C144.125 54.2103 147.401 54.0573 150.573 54.68C151.039 54.7755 151.463 55.0125 151.788 55.3581C152.112 55.7038 152.32 56.1411 152.384 56.6095C152.447 57.078 152.363 57.5544 152.142 57.9731C151.921 58.3917 151.575 58.7318 151.151 58.9464L151.109 58.9674C150.077 59.4742 148.971 59.8164 147.831 59.9814C146.784 60.1274 145.724 60.1693 144.669 60.1066C143.657 60.0568 142.692 59.9376 141.766 59.8055C140.842 59.6705 139.96 59.5391 139.002 59.3654C137.625 59.1353 136.278 58.7565 134.984 58.2359C134.275 57.9405 133.598 57.5764 132.961 57.149C132.311 56.7082 131.711 56.1987 131.172 55.6295C130.17 54.5388 129.352 53.2949 128.748 51.9457C128.189 50.6993 127.749 49.4029 127.437 48.0741C126.174 42.9246 126.281 37.5374 127.746 32.4413L127.748 32.4338C127.877 31.9897 128.133 31.5925 128.485 31.2912C128.838 30.9899 129.272 30.7977 129.733 30.7382C130.194 30.6787 130.662 30.7546 131.081 30.9564C131.499 31.1582 131.849 31.4772 132.087 31.8741C132.834 33.1632 133.238 34.6199 133.262 36.1071C133.286 37.4108 133.123 38.7113 132.779 39.9696C132.627 40.5768 132.43 41.1381 132.242 41.7055C132.032 42.2651 131.828 42.8276 131.578 43.3702C131.103 44.4641 130.546 45.5209 129.911 46.5317C127.388 50.6138 123.73 53.8837 119.379 55.9471C116.611 57.2364 113.605 57.9447 110.549 58.0278C109.35 58.0692 108.153 57.9058 107.01 57.5448C106.778 57.4676 106.561 57.388 106.359 57.3041C106.157 57.212 105.97 57.118 105.797 57.0219C105.481 56.8538 105.186 56.6476 104.921 56.408C104.222 55.7823 104.354 55.2786 105.049 54.9493C105.745 54.6271 107.004 54.4569 108.715 54.2864L109.534 54.1984L110.363 54.0883C110.918 54.0042 111.48 53.9342 112.04 53.8299C113.158 53.6335 114.263 53.371 115.35 53.0437C117.446 52.3958 119.415 51.3932 121.168 50.0801C124.711 47.4336 127.285 43.7069 128.495 39.4698C128.784 38.5044 128.931 37.5025 128.93 36.4952C128.943 35.664 128.719 34.8461 128.283 34.1366L132.01 33.6496C131.63 35.1487 131.393 36.6798 131.301 38.2229C131.124 41.0719 131.514 44.0015 132.008 46.6934C132.35 48.6117 132.949 50.4277 133.923 51.8238C134.381 52.4952 134.962 53.0753 135.635 53.5341C136.37 53.998 137.17 54.3504 138.009 54.5797C138.966 54.8424 139.938 55.0477 140.919 55.1944C141.965 55.3623 143.006 55.531 143.986 55.6303C145.957 55.8412 147.772 55.7612 149.16 55.0854L149.639 58.9186L148.951 58.7888L148.608 58.7213L148.259 58.6805L147.561 58.5965L146.856 58.5613C145.253 58.5008 143.65 58.6873 142.105 59.1143C140.532 59.5531 139.023 60.1953 137.619 61.0245C136.205 61.8552 134.9 62.8564 133.733 64.0053C132.556 65.1717 131.509 66.4624 130.614 67.8543C128.154 71.6308 126.703 76.1027 126.101 80.673L123.379 79.2159C123.541 79.0801 123.664 78.9035 123.735 78.7045C123.848 78.3947 123.912 78.0695 123.926 77.7401C123.948 77.3309 123.937 76.9206 123.893 76.5131L123.698 75.1498C123.631 74.6945 123.538 74.2432 123.42 73.7982L123.264 73.1242C123.217 72.8981 123.128 72.6831 123.062 72.4617C122.915 72.0237 122.789 71.5775 122.626 71.144L122.092 69.8583C121.317 68.1594 120.355 66.5518 119.221 65.0651C118.061 63.5884 116.748 62.2368 115.304 61.0327C113.48 59.5508 111.495 58.2766 109.385 57.2338C109.258 57.1679 109.134 57.0968 109.006 57.0343L108.617 56.8643L107.844 56.5165C107.336 56.2602 106.807 56.0902 106.289 55.883L105.512 55.5749C105.258 55.484 105.006 55.4022 104.753 55.3383C104.252 55.1834 103.716 55.1812 103.214 55.3318C103.091 55.3784 102.979 55.4358 102.891 55.4755C102.889 55.4763 102.887 55.4775 102.886 55.4789C102.885 55.4804 102.884 55.4821 102.883 55.484L102.873 55.5122C102.839 55.6149 102.847 55.7263 102.893 55.8241C102.934 55.9137 102.994 55.994 103.068 56.06C103.201 56.1786 103.368 56.2533 103.546 56.2741C103.63 56.2853 103.716 56.2788 103.797 56.2549C103.87 56.2409 103.942 56.2217 104.012 56.1974C104.13 56.1531 104.216 56.1252 104.264 56.1564C104.312 56.1856 104.326 56.2777 104.256 56.4348C104.205 56.5308 104.137 56.6171 104.056 56.6895C103.958 56.8057 103.831 56.8938 103.687 56.9446C103.343 57.0831 102.96 57.0954 102.607 56.9793C102.346 56.8935 102.112 56.742 101.928 56.5397C101.795 56.3929 101.691 56.2235 101.619 56.0396C101.537 55.8215 101.5 55.5893 101.51 55.3568C101.517 55.1803 101.575 55.0095 101.677 54.8648L101.932 54.5007C102.066 54.3093 102.223 54.1348 102.4 53.9812C102.498 53.8956 102.603 53.8173 102.713 53.7468C102.83 53.6814 102.952 53.6241 103.077 53.5752C103.668 53.3521 104.296 53.244 104.928 53.2568C105.422 53.259 105.915 53.302 106.402 53.3854L107.74 53.5971L108.077 53.6545L108.407 53.7374L109.069 53.907C110.854 54.3681 112.578 55.0374 114.204 55.9011C116.891 57.3958 119.284 59.3601 121.269 61.6995C121.291 61.6913 121.312 61.684 121.339 61.6748Z" fill="black"/>
<path d="M79.6714 109.132L81.081 109.916L82.4374 110.79L82.7749 111.011L83.0988 111.252L83.7454 111.735C83.9596 111.898 84.1779 112.055 84.3881 112.222L85.0005 112.749C85.8197 113.449 86.5989 114.193 87.3342 114.979L88.3913 116.198C88.7375 116.608 89.0426 117.05 89.3683 117.475C90.6175 119.207 91.6766 121.066 92.5277 123.022C93.3511 124.975 93.975 127.005 94.3902 129.082C94.4848 129.634 94.6002 130.183 94.6718 130.738L94.858 132.409L94.9402 134.089C94.9692 134.649 94.9322 135.211 94.9305 135.771C94.857 138.017 94.5352 140.247 93.9707 142.422L93.5293 143.953C93.4023 144.393 93.1198 144.772 92.7336 145.022C92.3475 145.271 91.8838 145.373 91.4278 145.309C90.9718 145.246 90.5543 145.021 90.2521 144.675C89.95 144.33 89.7835 143.888 89.7833 143.431L89.7839 143.342C89.7882 138.402 89.7776 133.309 90.733 128.192C91.2025 125.603 91.9708 123.076 93.0224 120.661C94.0967 118.179 95.5696 115.887 97.3835 113.874C99.244 111.881 101.43 110.214 103.849 108.944C106.196 107.726 108.666 106.756 111.217 106.05C112.471 105.694 113.729 105.39 114.991 105.121C116.256 104.855 117.551 104.621 118.89 104.476C120.258 104.315 121.638 104.275 123.013 104.354C124.455 104.439 125.881 104.707 127.255 105.152C127.708 105.298 128.104 105.58 128.39 105.959C128.675 106.338 128.836 106.795 128.851 107.268C128.865 107.741 128.732 108.207 128.47 108.602C128.208 108.997 127.829 109.302 127.386 109.476L127.337 109.495C125.173 110.295 122.885 110.713 120.577 110.731C118.127 110.746 115.681 110.552 113.265 110.153C110.869 109.823 108.497 109.34 106.163 108.708C104.957 108.376 103.773 107.971 102.617 107.495C101.426 107.015 100.276 106.438 99.1808 105.771C98.0568 105.089 97.0019 104.301 96.031 103.417C95.065 102.528 94.1906 101.546 93.4206 100.485C91.9566 98.4342 90.7681 96.2023 89.8849 93.846C88.1488 89.3192 87.0764 84.5679 86.7005 79.738C86.6565 79.1356 86.6187 78.5327 86.5979 77.929C86.5843 77.6273 86.5746 77.3255 86.5707 77.0234C86.5659 76.7188 86.5549 76.4369 86.5612 76.0665C86.561 75.2529 86.6821 74.4437 86.9205 73.6653C87.0838 73.151 87.3277 72.6654 87.6433 72.2266C88.0203 71.7077 88.5076 71.2776 89.0706 70.9669L89.0945 70.9539C89.37 70.8046 89.6724 70.7107 89.9845 70.6775C90.2965 70.6444 90.6121 70.6726 90.9131 70.7606C91.2142 70.8486 91.4949 70.9947 91.7391 71.1905C91.9834 71.3863 92.1864 71.628 92.3366 71.9018C92.4979 72.1985 92.595 72.5253 92.6218 72.8614C93.3267 82.4846 90.827 92.071 85.5079 100.143C84.2695 102.019 82.8015 103.734 81.1376 105.25C80.2856 106.016 79.3729 106.711 78.4084 107.331C77.4398 107.953 76.4152 108.485 75.3476 108.919C73.6545 109.633 71.821 109.958 69.9838 109.87C68.806 109.827 67.656 109.503 66.6308 108.925C65.5279 108.227 65.7463 107.745 66.7069 107.521C67.1952 107.381 67.8775 107.294 68.7346 107.132C69.7704 106.94 70.7925 106.681 71.7945 106.357C73.3326 105.841 74.7867 105.104 76.111 104.171C77.489 103.19 78.7477 102.054 79.862 100.785C81.4706 98.93 82.8517 96.8913 83.976 94.712C85.1412 92.5242 86.0876 90.2281 86.8018 87.8567C88.2403 83.113 88.7552 78.1403 88.3188 73.205L91.1604 74.7209C91.1611 74.7226 91.1653 74.7284 91.1611 74.7217L91.1503 74.7065C91.1522 74.7096 91.1543 74.7126 91.1566 74.7154C91.1625 74.7228 91.1681 74.7281 91.165 74.7242V74.73C91.1488 74.753 91.1352 74.7778 91.1244 74.8038C91.0504 74.9774 91.0026 75.1609 90.9824 75.3484C90.9448 75.6424 90.9299 75.9389 90.9378 76.2352L90.9798 77.3576C91.058 78.8836 91.2207 80.4037 91.4432 81.913C91.9005 84.9271 92.6653 87.8872 93.7258 90.7474C94.4581 92.7789 95.4136 94.7239 96.5749 96.5472C97.1294 97.4044 97.7509 98.2168 98.4339 98.9769C98.7626 99.3428 99.1096 99.6921 99.4735 100.023C99.6573 100.185 99.8286 100.358 100.017 100.514L100.582 100.979C102.277 102.269 104.175 103.27 106.201 103.94C108.343 104.66 110.542 105.2 112.776 105.554C115.014 105.968 117.278 106.226 119.551 106.327C121.663 106.428 123.775 106.124 125.771 105.43L125.843 109.272C123.867 108.604 121.635 108.495 119.343 108.724C118.196 108.832 117.032 109.02 115.856 109.245C114.678 109.474 113.508 109.731 112.358 110.027C109.894 110.63 107.517 111.54 105.283 112.735C103.111 113.893 101.185 115.456 99.6092 117.339C98.0481 119.273 96.8148 121.447 95.958 123.775C95.0748 126.159 94.458 128.632 94.1188 131.149C93.5492 135.115 93.4884 139.211 93.4356 143.362L90.0627 142.812C92.3095 136.231 91.5258 128.646 88.1633 122.476C87.9435 122.096 87.7484 121.7 87.5092 121.332L86.7901 120.227C86.5456 119.862 86.2655 119.523 86.0054 119.169C85.8707 118.996 85.7463 118.814 85.6033 118.647L85.1693 118.152C84.5935 117.489 83.9844 116.854 83.3444 116.252C82.6729 115.682 82.0221 115.086 81.2946 114.581C80.9458 114.309 80.5833 114.055 80.2085 113.82C79.8334 113.586 79.4673 113.335 79.0852 113.111L77.9186 112.47C77.5325 112.251 77.1175 112.087 76.7186 111.891C75.101 111.144 73.4095 110.565 71.6714 110.165C67.5298 109.198 63.2292 109.115 59.053 109.921L59.0094 108.274C61.5102 109.03 64.1352 109.294 66.7378 109.053C68.215 108.915 68.9649 108.875 68.9587 109.191C68.9488 109.331 68.7537 109.572 68.333 109.848C68.0778 110.014 67.8108 110.163 67.5339 110.291C67.3722 110.369 67.1958 110.449 67.003 110.522C66.9068 110.559 66.8077 110.601 66.7032 110.635C66.5979 110.665 66.489 110.695 66.3766 110.725C63.7664 111.406 61.0395 111.523 58.3798 111.069C57.9396 110.992 57.5379 110.771 57.2387 110.441C56.9395 110.111 56.7599 109.691 56.7286 109.248C56.6973 108.805 56.8161 108.365 57.0661 107.997C57.316 107.628 57.6827 107.354 58.1078 107.217L58.2765 107.163C60.9187 106.326 63.6757 105.902 66.449 105.905C68.7263 105.898 70.9948 106.186 73.1971 106.762C75.4146 107.332 77.563 108.141 79.6043 109.174C79.6259 109.159 79.6464 109.145 79.6714 109.132Z" fill="black"/>
</svg>
