<svg width="504" height="686" viewBox="0 0 504 686" fill="none" xmlns="http://www.w3.org/2000/svg">
<g clip-path="url(#clip0_7_82)">
<path d="M711.011 654.066C677.351 654.066 641.554 651.624 603.999 646.757C542.503 638.785 478.972 624.611 415.16 604.632C351.348 584.653 291.081 560.065 236.025 531.553C182.839 504.01 136.735 473.972 98.9881 442.287C61.2203 410.586 33.7186 378.822 17.2462 347.884C0.164271 315.791 -4.25593 285.991 4.10747 259.307C12.4709 232.622 33.1144 210.667 65.4656 194.056C96.6614 178.039 137.381 167.636 186.491 163.134C235.585 158.637 290.594 160.263 349.996 167.965C411.492 175.941 475.023 190.11 538.835 210.089C602.647 230.069 662.913 254.656 717.97 283.168C771.155 310.711 817.26 340.749 855.007 372.434C892.774 404.135 920.276 435.899 936.749 466.838C953.83 498.925 958.251 528.724 949.887 555.409C941.524 582.094 920.88 604.049 888.529 620.66C857.333 636.677 816.613 647.08 767.504 651.582C749.447 653.235 730.589 654.061 711.006 654.061L711.011 654.066ZM243.334 161.45C223.713 161.45 204.75 162.276 186.565 163.939C137.556 168.431 96.937 178.807 65.8366 194.777C33.6868 211.286 13.1811 233.077 4.88127 259.55C-3.41853 286.023 0.985771 315.611 17.9617 347.502C34.3864 378.35 61.8245 410.035 99.5075 441.667C177.057 506.759 289.242 564.361 415.403 603.858C541.565 643.356 666.581 660.02 767.435 650.782C816.444 646.291 857.063 635.914 888.163 619.945C920.313 603.435 940.819 581.644 949.119 555.171C957.419 528.698 953.014 499.11 936.038 467.219C919.614 436.371 892.176 404.686 854.493 373.054C776.943 307.962 664.758 250.36 538.597 210.863C435.183 178.484 332.533 161.45 243.334 161.45Z" fill="#1B5AFF" fill-opacity="0.49"/>
<path d="M663.189 655.109C637.977 655.109 611.71 653.632 584.548 650.681C526.375 644.357 466.638 631.507 406.992 612.481C322.245 585.447 243.773 547.639 180.057 503.146C117.989 459.803 72.6206 412.154 48.8501 365.336C39.4108 346.75 33.4907 328.423 31.2541 310.87C28.9539 292.808 30.5386 275.419 35.9658 259.195C45.5641 230.498 66.5839 206.397 98.4369 187.573C129.166 169.41 168.641 156.889 215.763 150.363C262.864 143.838 315.239 143.626 371.435 149.733C429.607 156.057 489.344 168.907 548.99 187.938C633.737 214.973 712.209 252.781 775.925 297.273C837.988 340.616 883.362 388.266 907.132 435.078C916.571 453.664 922.491 471.991 924.728 489.544C927.028 507.606 925.444 524.995 920.016 541.219C910.418 569.917 889.398 594.017 857.545 612.842C826.816 631.004 787.341 643.526 740.219 650.051C715.887 653.42 690.139 655.109 663.189 655.109ZM293.27 146.084C266.325 146.084 240.419 147.763 215.874 151.163C119.234 164.553 55.6129 203.013 36.7343 259.455C25.9965 291.553 30.316 327.051 49.5709 364.971C73.2831 411.667 118.566 459.215 180.523 502.479C244.176 546.929 322.574 584.695 407.241 611.703C525.15 649.315 643.367 662.647 740.108 649.246C836.748 635.856 900.369 597.396 919.248 540.954C929.986 508.856 925.666 473.358 906.411 435.438C882.699 388.742 837.416 341.194 775.459 297.93C711.806 253.48 633.408 215.714 548.741 188.706C460.74 160.634 372.558 146.084 293.27 146.084Z" fill="#1B5AFF" fill-opacity="0.49"/>
<path d="M618.616 656.942C601.195 656.942 583.339 656.169 565.091 654.611C510.247 649.94 454.3 638.409 398.82 620.331C324.227 596.03 255.11 561.082 198.941 519.264C144.356 478.628 103.451 432.726 80.6342 386.518C69.7851 364.542 63.1336 342.687 60.8705 321.569C58.5385 299.794 60.8758 278.772 67.8188 259.094C78.652 228.379 100.048 202.139 131.408 181.095C161.671 160.787 199.9 146.152 245.03 137.593C290.143 129.039 339.878 126.989 392.862 131.502C447.707 136.173 503.654 147.704 559.134 165.782C633.726 190.083 702.844 225.031 759.013 266.849C813.598 307.485 854.503 353.387 877.32 399.595C888.169 421.572 894.82 443.426 897.083 464.544C899.415 486.319 897.078 507.341 890.135 527.019C879.302 557.734 857.906 583.974 826.546 605.018C796.283 625.326 758.054 639.961 712.924 648.52C683.345 654.129 651.778 656.942 618.616 656.942ZM339.841 129.934C306.796 129.934 275.022 132.731 245.183 138.387C152.629 155.935 89.9092 198.897 68.582 259.365C54.9981 297.877 59.413 341.723 81.355 386.163C128.493 481.642 250.234 571.077 399.063 619.563C473.401 643.785 548.555 656.179 618.112 656.179C651.158 656.179 682.931 653.383 712.77 647.726C805.324 630.178 868.045 587.216 889.372 526.749C902.956 488.236 898.541 444.39 876.599 399.95C829.461 304.472 707.72 215.036 558.89 166.55C484.552 142.328 409.398 129.934 339.841 129.934Z" fill="#1B5AFF" fill-opacity="0.49"/>
<path d="M577.308 659.479C566.877 659.479 556.325 659.167 545.635 658.542C494.108 655.523 441.962 645.31 390.642 628.181C357.739 617.201 326.061 603.62 296.487 587.815C267.793 572.481 241.044 555.038 216.987 535.97C169.627 498.432 133.226 454.946 111.729 410.21C86.6232 357.963 82.4521 305.674 99.6665 258.983C111.735 226.255 133.507 197.864 164.374 174.606C194.176 152.154 231.154 135.4 274.291 124.817C317.412 114.234 364.513 110.347 414.285 113.265C465.812 116.284 517.958 126.496 569.278 143.626C602.181 154.606 633.859 168.187 663.433 183.992C692.127 199.326 718.871 216.768 742.933 235.837C790.294 273.375 826.694 316.861 848.191 361.597C873.297 413.844 877.468 466.133 860.254 512.824C848.185 545.552 826.413 573.942 795.546 597.2C765.744 619.653 728.766 636.407 685.629 646.99C651.768 655.3 615.447 659.479 577.308 659.479ZM383.01 113.074C345.184 113.074 308.64 117.227 274.492 125.612C186.025 147.323 124.211 194.787 100.43 259.269C83.2895 305.748 87.45 357.825 112.461 409.866C157.129 502.813 261.216 584.139 390.896 627.413C492.301 661.254 596.907 667.922 685.433 646.2C773.901 624.489 835.715 577.025 859.496 512.543C876.636 466.064 872.475 413.987 847.465 361.946C802.796 268.999 698.71 187.673 569.029 144.399C506.738 123.615 443.244 113.08 383.01 113.08V113.074Z" fill="#1B5AFF" fill-opacity="0.49"/>
<path d="M539.222 662.657C534.897 662.657 530.551 662.594 526.184 662.472C477.98 661.105 429.629 652.212 382.469 636.036C354.326 626.385 327.27 614.309 302.052 600.145C277.55 586.39 254.66 570.595 234.016 553.2C193.556 519.116 161.692 478.702 141.86 436.323C128.154 407.032 120.22 377.164 118.28 347.55C116.271 316.919 120.729 287.088 131.525 258.883C144.828 224.136 166.976 193.606 197.356 168.129C226.692 143.531 262.424 124.664 303.563 112.052C344.696 99.4406 389.158 93.7201 435.718 95.0337C483.922 96.4003 532.274 105.293 579.433 121.47C607.576 131.12 634.633 143.197 659.85 157.36C684.352 171.116 707.243 186.911 727.886 204.305C768.346 238.39 800.21 278.804 820.043 321.183C833.748 350.474 841.682 380.342 843.622 409.956C845.631 440.587 841.174 470.423 830.378 498.623C817.075 533.369 794.926 563.9 764.546 589.377C735.211 613.975 699.478 632.842 658.34 645.453C621.065 656.884 581.055 662.657 539.222 662.657ZM422.839 95.5846C381.568 95.5846 341.368 101.316 303.807 112.831C219.425 138.7 158.512 190.677 132.283 259.174C110.966 314.858 114.533 375.993 142.596 435.984C184.005 524.492 271.535 597.131 382.734 635.273C475.887 667.228 573.683 670.57 658.106 644.685C742.488 618.816 803.401 566.839 829.63 498.342C850.947 442.658 847.38 381.523 819.316 321.532C777.908 233.024 690.383 160.385 579.179 122.243C527.472 104.51 474.323 95.5846 422.839 95.5846Z" fill="#1B5AFF" fill-opacity="0.49"/>
<path d="M504.274 666.407C460.225 666.407 416.511 658.833 374.297 643.886C327.28 627.238 285.384 602.651 249.773 570.817C232.702 555.558 217.295 538.735 203.981 520.832C190.768 503.056 179.553 484.131 170.649 464.57C155.656 431.641 147.308 397.434 145.824 362.9C144.293 327.152 150.197 292.12 163.383 258.782C177.921 222.018 200.446 189.342 230.338 161.651C259.207 134.913 293.689 113.933 332.835 99.2871C371.975 84.647 413.803 77.0833 457.151 76.8078C502.021 76.5271 546.589 84.0961 589.588 99.3242C636.604 115.972 678.501 140.559 714.111 172.393C731.183 187.652 746.59 204.475 759.903 222.378C773.116 240.154 784.331 259.079 793.235 278.639C808.229 311.569 816.576 345.775 818.06 380.31C819.592 416.058 813.688 451.09 800.501 484.428C785.963 521.192 763.438 553.868 733.546 581.559C704.677 608.297 670.196 629.277 631.05 643.923C591.909 658.563 550.082 666.127 506.728 666.402C505.906 666.402 505.085 666.407 504.263 666.407H504.274ZM459.892 77.6871C328.51 77.6871 208.836 146.036 164.136 259.084C138.314 324.387 140.89 397.249 171.386 464.242C208.269 545.261 282.326 610.463 374.567 643.128C549.811 705.185 740.553 633.859 799.754 484.137C825.576 418.833 823 345.971 792.504 278.978C755.621 197.96 681.564 132.757 589.323 100.092C546.388 84.8906 502.52 77.6924 459.892 77.6924V77.6871Z" fill="#1B5AFF" fill-opacity="0.49"/>
<path d="M472.537 670.671C436.084 670.671 400.357 664.32 366.119 651.735C327.588 637.572 293.228 616.343 263.993 588.635C235.755 561.876 213.431 530.202 197.637 494.492C181.589 458.209 173.098 419.606 172.388 379.759C171.651 338.503 179.341 297.766 195.236 258.676C211.009 219.893 233.91 185.073 263.315 155.167C291.712 126.29 324.948 103.191 362.096 86.5219C399.244 69.8531 438.432 60.4514 478.574 58.5764C520.137 56.6378 560.899 62.8879 599.743 77.1679C638.274 91.3313 672.634 112.561 701.868 140.268C730.107 167.027 752.43 198.701 768.224 234.412C784.267 270.694 792.763 309.297 793.474 349.144C794.21 390.4 786.52 431.137 770.625 470.227C754.852 509.01 731.951 543.831 702.547 573.736C674.144 602.614 640.913 625.713 603.765 642.381C566.618 659.05 527.429 668.452 487.287 670.327C482.364 670.555 477.44 670.671 472.537 670.671ZM493.472 59.1114C367.407 59.1114 246.137 135.649 195.983 258.983C164.591 336.172 165.445 419.696 198.374 494.168C230.741 567.353 290.413 623.043 366.394 650.978C401.115 663.743 436.948 669.797 472.389 669.797C598.455 669.797 719.724 593.26 769.878 469.925C801.27 392.736 800.417 309.212 767.482 234.74C735.115 161.555 675.443 105.866 599.462 77.9306C564.741 65.1655 528.913 59.1114 493.472 59.1114Z" fill="#1B5AFF" fill-opacity="0.49"/>
<path d="M443.801 675.391C414.089 675.391 385.305 670.099 357.946 659.585C327.201 647.768 299.768 629.881 276.406 606.427C253.838 583.768 235.643 556.516 222.33 525.435C188.039 445.38 189.772 348.117 227.094 258.576C244.097 217.775 267.385 180.804 296.302 148.69C324.233 117.667 356.218 92.4597 391.373 73.7623C426.528 55.0648 463.082 43.8199 500.013 40.3452C538.252 36.7488 575.23 41.6853 609.908 55.0119C640.653 66.8289 668.086 84.7159 691.449 108.17C714.016 130.829 732.211 158.081 745.524 189.162C779.815 269.217 778.077 366.48 740.76 456.022C723.757 496.822 700.469 533.793 671.552 565.907C643.621 596.93 611.636 622.137 576.486 640.835C541.331 659.532 504.777 670.777 467.847 674.252C459.775 675.009 451.756 675.391 443.801 675.391ZM524.143 40.0857C405.196 40.0857 283.566 125.183 227.836 258.888C190.604 348.228 188.866 445.264 223.072 525.117C250.107 588.233 298.109 635.724 358.238 658.833C385.893 669.464 414.73 674.517 443.705 674.517C562.653 674.527 684.283 589.42 740.012 455.72C777.245 366.38 778.983 269.344 744.777 189.49C717.742 126.375 669.74 78.8842 609.611 55.7746C581.956 45.1441 553.119 40.0857 524.143 40.0857Z" fill="#1B5AFF" fill-opacity="0.49"/>
<path d="M417.799 680.513C394.018 680.513 371.238 676.143 349.768 667.43C302.773 648.362 266.261 610.029 244.187 556.569C227.476 516.092 219.775 467.939 221.922 417.318C223.013 391.529 226.639 365.125 232.691 338.842C238.924 311.776 247.754 284.736 258.942 258.47C277.179 215.651 300.844 176.535 329.273 142.207C356.738 109.044 387.472 81.7233 420.624 61.0025C453.786 40.2711 487.695 27.1935 521.414 22.1192C556.336 16.8649 589.524 20.4826 620.047 32.861C667.042 51.9239 703.554 90.2616 725.628 143.721C742.339 184.199 750.04 232.352 747.894 282.972C746.802 308.762 743.177 335.166 737.124 361.449C730.891 388.515 722.061 415.555 710.873 441.821C692.636 484.64 668.971 523.756 640.542 558.084C613.077 591.247 582.343 618.568 549.191 639.288C516.029 660.02 482.12 673.097 448.401 678.172C438.04 679.729 427.832 680.513 417.799 680.513ZM551.682 20.5461C509.372 20.5461 464.688 34.4235 421.064 61.6911C353.028 104.218 295.719 174.215 259.695 258.793C215.948 361.491 210.436 472.696 244.945 556.267C266.934 609.521 303.292 647.705 350.081 666.688C410.215 691.085 480.779 681.111 548.773 638.616C616.809 596.088 674.118 526.092 710.142 441.514C753.888 338.816 759.4 227.611 724.892 144.039C702.902 90.786 666.544 52.6019 619.755 33.6184C598.206 24.8788 575.315 20.5461 551.682 20.5461Z" fill="#1B5AFF" fill-opacity="0.49"/>
<path d="M394.304 686C375.685 686 358.052 682.425 341.596 675.285C315.228 663.849 293.472 643.955 276.941 616.157C260.983 589.335 250.536 556.315 245.883 518.02C241.235 479.74 242.608 438.119 249.975 394.299C257.596 348.943 271.334 303.211 290.811 258.374C310.283 213.538 334.329 172.276 362.271 135.734C389.269 100.431 418.753 71.0027 449.906 48.2533C481.076 25.4932 512.346 10.5724 542.847 3.90378C574.456 -3.00844 603.85 -0.71496 630.223 10.7207C656.591 22.1563 678.347 42.0508 694.878 69.848C710.836 96.6706 721.282 129.69 725.936 167.986C730.584 206.265 729.211 247.892 721.844 291.707C714.223 337.062 700.485 382.794 681.008 427.636C661.535 472.473 637.489 513.735 609.548 550.277C582.55 585.579 553.066 615.008 521.912 637.757C490.743 660.517 459.473 675.438 428.971 682.107C417.089 684.702 405.514 686 394.304 686ZM577.223 0.773419C537.489 0.773419 493.965 17.0714 450.378 48.8995C386.428 95.5954 330.02 170.099 291.548 258.692C253.07 347.285 237.138 439.347 246.683 517.919C256.218 596.417 290.043 652.037 341.919 674.538C393.795 697.044 457.549 683.744 521.435 637.095C585.385 590.399 641.793 515.896 680.266 427.303C718.738 338.71 734.675 246.647 725.13 168.076C715.595 89.5783 681.771 33.9574 629.894 11.4569C613.411 4.30633 595.725 0.773419 577.223 0.773419Z" fill="#1B5AFF" fill-opacity="0.49"/>
</g>
<defs>
<clipPath id="clip0_7_82">
<rect width="954" height="686" fill="white"/>
</clipPath>
</defs>
</svg>
