 <svg width="31" height="30" viewBox="0 0 31 30" fill="none" xmlns="http://www.w3.org/2000/svg">
                      <g clip-path="url(#clip0_106_189)">
                        <path d="M28.7053 0H2.28867C1.02324 0 0 0.966797 0 2.16211V27.832C0 29.0273 1.02324 30 2.28867 30H28.7053C29.9707 30 31 29.0273 31 27.8379V2.16211C31 0.966797 29.9707 0 28.7053 0ZM9.19707 25.5645H4.59551V11.2441H9.19707V25.5645ZM6.89629 9.29297C5.41895 9.29297 4.22617 8.13867 4.22617 6.71484C4.22617 5.29102 5.41895 4.13672 6.89629 4.13672C8.36758 4.13672 9.56035 5.29102 9.56035 6.71484C9.56035 8.13281 8.36758 9.29297 6.89629 9.29297ZM26.4166 25.5645H21.8211V18.6035C21.8211 16.9453 21.7908 14.8066 19.4295 14.8066C17.0379 14.8066 16.6746 16.6172 16.6746 18.4863V25.5645H12.0852V11.2441H16.493V13.2012H16.5535C17.165 12.0762 18.6666 10.8867 20.9008 10.8867C25.5568 10.8867 26.4166 13.8516 26.4166 17.707V25.5645V25.5645Z" fill="#1B5AFF" />
                      </g>
                      <defs>
                        <clipPath id="clip0_106_189">
                          <rect width="31" height="30" fill="white" />
                        </clipPath>
                      </defs>
                    </svg>